/* XPM */
static char *_b26a7647b88466b9d26415da395dd3f4BUDn3EpQemUH71I[] = {
/* columns rows colors chars-per-pixel */
"64 64 13 1 ",
"  c black",
". c #21110D",
"X c #402717",
"o c #573A23",
"O c #AC7B5D",
"+ c #72A133",
"@ c #9CDB43",
"# c #D6F264",
"$ c #1D438A",
"% c #2C65B5",
"& c #787E97",
"* c #A4A8B5",
"= c #C1AC8F",
/* pixels */
"@@@@@@@@@@@@@@@@@@@@@@@@@@@@@@@@@@@@@@@@@@@@@@@@@@@@@@@@@@@@@@@@",
"@@@@@@@@@@@@@@@@@@@@@@@@@@@@@@@@@@@@@@@@@@@@@@@@@@@@@@@@@@@@@@@@",
"@@@@@@@@@@@@@@@@@@@@@@@@@@@@@@@@@@@@@@@@@@@@@@@@@@@@@@@@@@@@@@@@",
"@@@@@@@@@@@@@@@@@@@@@@@@@@@@@@@@@@@@@@@@@@@@@@@@@@@@@@@@@@@@@@@@",
"@@@@@@@@@@@@@@@@@@@@@@@@@@@@@@@@@@@@@@@@@@@@@@@@########@@@@@@@@",
"@@@@@@@@@@@@@@@@@@@@@@@@@@@@@@@@@@@@@@@@@@@@@@@@########@@@@@@@@",
"@@@@@@@@@@@@@@@@@@@@@@@@@@@@@@@@@@@@@@@@@@@@@@@@########@@@@@@@@",
"@@@@@@@@@@@@@@@@@@@@@@@@@@@@@@@@@@@@@@@@@@@@@@@@########@@@@@@@@",
"@@@@########@@@@@@@@@@         @@     @@@@@@@@@@@@@@########@@@@",
"@@@@########@@@@@@@@@@         @@     @@@@@@@@@@@@@@########@@@@",
"@@@@########@@@@@@@@@@  oooooXX  oo       @@@@@@@@@@########@@@@",
"@@@@########@@@@@@@@@@  oooooXX  oo       @@@@@@@@@@########@@@@",
"@@@@@@@@@@@@@@@@@@@@@@    oooooXXoooooooXX   @@@@@@@@@@@@@@@@@@@",
"@@@@@@@@@@@@@@@@@@@@@@    oooooXXoooooooXX   @@@@@@@@@@@@@@@@@@@",
"@@@@@@@@@@@@@@@@@@@@@@    oooooXXoooooooXX   @@@@@@@@@@@@@@@@@@@",
"@@@@@@@@@@@@@@@@@@@   XXoooooooooooooooooo   @@@@@@@@@@@@@@@@@@@",
"@@@@@@@@@@@@@@@@@@@   XXoooooooooooooooooo   @@@@@@@@@@@@@@@@@@@",
"@@@@@@@@@@@@@@@@@  XXXoooooooooXXoooooooooXXX  @@@@@@@@@@@@@@@@@",
"@@@@@@@@@@@@@@@@@  XXXoooooooooXXoooooooooXXX  @@@@@@@@@@@@@@@@@",
"@@@@@@@@@@@@@@@@@  oooooooXXXXXXXXXoooooooooo  @@@@@@@@@@@@@@@@@",
"@@@@@@@@@@@@@@@@@  oooooooXXXXXXXXXoooooooooo  @@@@@@@@@@@@@@@@@",
"@@@@@@@@@@@@@@@@@  oooooooXXXXXXXXXoooooooooo  @@@@@@@@@@@@@@@@@",
"@@@@@@@@@@@@@@@@@  oooooooXXXOOOOOOOOOXXooooo  @@@@@@@@@@@@@@@@@",
"@@@@@@@@@@@@@@@@@  oooooooXXXOOOOOOOOOXXooooo  @@@@@@@@@@@@@@@@@",
"@@@@@@@@@@@@@@@@@  oooooXXOOOOOOOOOOOOOOXXooo  @@@@@@@@@@@@@@@@@",
"@@@@@@@@@@@@@@@@@  oooooXXOOOOOOOOOOOOOOXXooo  @@@@@@@@@@@@@@@@@",
"@@@@@@@@@@@@@@@@@  XXXooOO...======...OOXX   @@@@@@@@@@@@@@@@@@@",
"@@@@@@@@@@@@@@@@@  XXXooOO...======...OOXX   @@@@@@@@@@@@@@@@@@@",
"@@@@@@@@@@@@@@@@@  XXXooOO...======...OOXX   @@@@@@@@@@@@@@@@@@@",
"@@@@@@@@@@@@@@@@@@@   oo==...======...====   @@@@@@@@@@@@@@@@@@@",
"@@@@@@@@@@@@@@@@@@@   oo==...======...====   @@@@@@@@@@@@@@@@@@@",
"@@@@@@@@@@@@@@@@@@@   OO================OO   @@@@@@@@@@@@@@@@@@@",
"@@@@@@@@@@@@@@@@@@@   OO================OO   @@@@@@@####@@@@@@@@",
"@@@@@@@@@@@@@@@@@@@@@@  OO============OO  @@@@@@@@@@####@@@@@@@@",
"@@@@@@@@@@@@@@@@@@@@@@  OO============OO  @@@@@@@@@@####@@@@@@@@",
"@@@@@@@@@@@@@@@@@@@@@@  XXOOOOOOOOOOOOXX  @@@@@@@@@@####@@@@@@@@",
"@@@@@@@@@@@@@@@@@@@@##  XXOOOOOOOOOOOOXX  @@@@@@@@@@@@@@####@@@@",
"@@@@@@@@@@@@@@@@@@@@##  XXooo&&&&&&oooXX  @@@@@@@@@@@@@@####@@@@",
"@@@@@@@@@@@@@@@@@@@@##  XXooo&&&&&&oooXX  @@@@@@@@@@@@@@####@@@@",
"@@@@@@@@@@@@@@@@@@@@##  ooooo&&****ooooo  @@@@@@@@@@@@@@####@@@@",
"@@@@@@@@@@@@@@@@@@@@@@  ooooo&&****ooooo  @@@@@@@@@@####@@@@@@@@",
"@@@@@@@@@@@@@@@@@@@   ====ooo%%%%%%ooo====   @@@@@@@####@@@@@@@@",
"@@@@@@@@@@@@@@@@@@@   ====ooo%%%%%%ooo====   @@@@@@@####@@@@@@@@",
"@@@@@@@@@@@@@@@@@@@   ====ooo%%%%%%ooo====   @@@@@@@####@@@@@@@@",
"@@@@@@@@@@@@@@@@@@@   ====%%%%%$$%%%%%====   @@@@@@@@@@@@@@@@@@@",
"@@@@@@@@@@@@@@@@@@@   ====%%%%%$$%%%%%====   @@@@@@@@@@@@@@@@@@@",
"@@@@@@@@@@@@@@@@@@@+++  %%%%%$$  $$%%%%%  +++@@@@@@@@@@@@@@@@@@@",
"@@@@@@@@@@@@@@@@@@@+++  %%%%%$$  $$%%%%%  +++@@@@@@@@@@@@@@@@@@@",
"@@@@@@@@@@@@@@@@@+++++  XXooo  ++  oooXX  +++++@@@@@@@@@@@@@@@@@",
"@@@@@@@@@@@@@@@@@+++++  XXooo  ++  oooXX  +++++@@@@@@@@@@@@@@@@@",
"@@@@@@@@@@@@@@@@@+++++  XXooo  ++  oooXX  +++++@@@@@@@@@@@@@@@@@",
"@@@@@@@@@@@@@@@@@++++++++++++++++++++++++++++++@@@@@@@@@@@@@@@@@",
"@@@@@@@@@@@@@@@@@++++++++++++++++++++++++++++++@@@@@@@@@@@@@@@@@",
"@@@@@@@@@@@@@@@@@@@++++++++++++++++++++++++++@@@@@@@@@@@@@@@@@@@",
"@@@@@@@@@@@@@@@@@@@++++++++++++++++++++++++++@@@@@@@@@@@@@@@@@@@",
"@@@@@@@@@@@@@@@@@@@@@@@@@@@@@@@@@@@@@@@@@@@@@@@@@@@@@@@@@@@@@@@@",
"@@@@@@@@@@@@@@@@@@@@####@@@@@@@@@@@@@@@@@@@@@@@@@@@@@@@@@@@@@@@@",
"@@@@@@@@@@@@@@@@@@@@####@@@@@@@@@@@@@@@@@@@@@@@@@@@@@@@@@@@@@@@@",
"@@@@@@@@@@@@@@@@@@@@####@@@@@@@@@@@@@@@@@@@@@@@@@@@@@@@@@@@@@@@@",
"@@@@@@@@@@@@@@@@@@@@####@@@@@@@@@@@@@@@@@@@@@@@@@@@@@@@@@@@@@@@@",
"@@@@@@@@@@@@@@@@@@@@@@@@@@@@@@@@@@@@@@@@@@@@@@@@@@@@@@@@@@@@@@@@",
"@@@@@@@@@@@@@@@@@@@@@@@@@@@@@@@@@@@@@@@@@@@@@@@@@@@@@@@@@@@@@@@@",
"@@@@@@@@@@@@@@@@@@@@@@@@@@@@@@@@@@@@@@@@@@@@@@@@@@@@@@@@@@@@@@@@",
"@@@@@@@@@@@@@@@@@@@@@@@@@@@@@@@@@@@@@@@@@@@@@@@@@@@@@@@@@@@@@@@@"
};
