/* XPM */
static char *result[] = {
/* columns rows colors chars-per-pixel */
"64 64 17 1 ",
"  c black",
". c #06070F",
"X c #21110D",
"o c #2E1D18",
"O c #3F2A1E",
"+ c #402717",
"@ c #573A23",
"# c #537628",
"$ c #AC7B5D",
"% c #72A133",
"& c #9CDB43",
"* c #D6F264",
"= c #1D438A",
"- c #2C65B5",
"; c #787E97",
": c #A4A8B5",
"> c #C1AC8F",
/* pixels */
"&&&&&&&&&&&&&&&&&&&&&&&&&&&&&&&&&&&&&&&&&&&&&&&&&&&&&&&&&&&&&&&&",
"&&&&&&&&&&&&&&&&&&&&&&&&&&&&&&&&&&&&&&&&&&&&&&&&&&&&&&&&&&&&&&&&",
"&&&&&&&&&&&&&&&&&&&&&&&&&&&&&&&&&&&&&&&&&&&&&&&&&&&&&&&&&&&&&&&&",
"&&&&&&&&&&&&&&&&&&&&&&&&&&&&&&&&&&&&&&&&&&&&&&&&&&&&&&&&&&&&&&&&",
"&&&&&&&&&&&&&&&&&&&&&&&&&&&&&&&&&&&&&&&&&&&&&&&&********&&&&&&&&",
"&&&&&&&&&&&&&&&&&&&&&&&&&&&&&&&&&&&&&&&&&&&&&&&&********&&&&&&&&",
"&&&&&&&&&&&&&&&&&&&&&&&&&&&&&&&&&&&&&&&&&&&&&&&&********&&&&&&&&",
"&&&&&&&&&&&&&&&&&&&&&&&&&&&&&&&&&&&&&&&&&&&&&&&&********&&&&&&&&",
"&&&&********&&&&&&&&&&&&&&&&&&&&&&&&&&&&&&&&&&&&&&&&********&&&&",
"&&&&********&&&&&&&&&&&&&&&&&&&&&&&&&&&&&&&&&&&&&&&&********&&&&",
"&&&&********&&&&&&&&&&&&&&&&&&&&&&&&&&&&&&&&&&&&&&&&********&&&&",
"&&&&********&&&&&&&&&&&&&&&&&&&    &        &&&&&&&&********&&&&",
"&&&&&&&&&&&&&&&&&&&&&&&&&&&&&&     &        &&&&&&&&&&&&&&&&&&&&",
"&&&&&&&&&&&&&&&&&&&&&&&&&&        @         &&&&&&&&&&&&&&&&&&&&",
"&&&&&&&&&&&&&&&&&&&&&&&&&       @@  ++@@@@  &&&&&&&&&&&&&&&&&&&&",
"&&&&&&&&&&&&&&&&&&&&&&&&&       @@  ++@@@@  &&&&&&&&&&&&&&&&&&&&",
"&&&&&&&&&&&&&&&&&&&&&&&   @@@@++@@++@@@@      &&&&&&&&&&&&&&&&&&",
"&&&&&&&&&&&&&&&&&&&&&&&   @@@@++@@++@@@@      &&&&&&&&&&&&&&&&&&",
"&&&&&&&&&&&&&&&&&&&&&&  @@@@@@@@@@@@@@@@@@++  &&&&&&&&&&&&&&&&&&",
"&&&&&&&&&&&&&&&&&&&&&   @@@@@@@@@@@@@@@@@@++    &&&&&&&&&&&&&&&&",
"&&&&&&&&&&&&&&&&&&&&  @@@@@@@@@@@@@@@@@@@@@@++  &&&&&&&&&&&&&&&&",
"&&&&&&&&&&&&&&&&&&&&  @@@@@@@@@@@@@@@@@@@@@@++  &&&&&&&&&&&&&&&&",
"&&&&&&&&&&&&&&&&&&&&  @@@@@@++++@@@@@@++@@@@++  &&&&&&&&&&&&&&&&",
"&&&&&&&&&&&&&&&&&&    @@@@@@++++@@@@@@++@@@@++  &&&&&&&&&&&&&&&&",
"&&&&&&&&&&&&&&&&&&  ++@@++$$$$++@@@@@@++++++++  &&&&&&&&&&&&&&&&",
"&&&&&&&&&&&&&&&&&&  ++@@++$$$$++@@@@@@++++++++  &&&&&&&&&&&&&&&&",
"&&&&&&&&&&&&&&&&&&  ++++$$$$$$$$++@@@@++++@@++  &&&&&&&&&&&&&&&&",
"&&&&&&&&&&&&&&&&&&  ++++$$$$$$$$++@@@@++++@@++  &&&&&&&&&&&&&&&&",
"&&&&&&&&&&&&&&&&&&  ++  XX>>>>XX$$@@++$$@@@@++  &&&&&&&&&&&&&&&&",
"&&&&&&&&&&&&&&&&&&  ++  XX>>>>XX$$@@++$$@@@@++  &&&&&&&&&&&&&&&&",
"&&&&&&&&&&&&&&&&&&&&    XX>>>>XX>>++$$$$@@++++  &&&&&&&&&&&&&&&&",
"&&&&&&&&&&&&&&&&&&&&    XX>>>>XX>>++$$$$@@++++  &&&&&&&&&&&&&&&&",
"&&&&&&&&&&&&&&&&&&&&&&  >>>>>>>>>>>>$$$$++++  &&&&&&****&&&&&&&&",
"&&&&&&&&&&&&&&&&&&&&&&  >>>>>>>>>>>>$$$$++++  &&&&&&****&&&&&&&&",
"&&&&&&&&&&&&&&&&&&&&&&  $$>>>>>>>>$$++++++  &&&&&&&&****&&&&&&&&",
"&&&&&&&&&&&&&&&&&&&&&&  $$>>>>>>>>$$++++++  &&&&&&&&****&&&&&&&&",
"&&&&&&&&&&&&&&&&&&&&&&&&  ++;;;;;;@@++++  ****&&&&&&&&&&****&&&&",
"&&&&&&&&&&&&&&&&&&&&&&&   ++;;;;;;@@++++    **&&&&&&&&&&****&&&&",
"&&&&&&&&&&&&&&&&&&&&&&    ++::;;;;@@@@++++  **&&&&&&&&&&****&&&&",
"&&&&&&&&&&&&&&&&&&&&&&    ++::;;;;@@@@++++  **&&&&&&&&&&****&&&&",
"&&&&&&&&&&&&&&&&&&&&  $$$$++::::;;@@@@++>>>>  &&&&&&****&&&&&&&&",
"&&&&&&&&&&&&&&&&&&&&  $$$$++::::;;@@@@++>>>>  &&&&&&****&&&&&&&&",
"&&&&&&&&&&&&&&&&&&&&  $$$$++------@@@@++>>>>  &&&&&&****&&&&&&&&",
"&&&&&&&&&&&&&&&&&&&&  $$$$++------@@@@++>>>>  &&&&&&****&&&&&&&&",
"&&&&&&&&&&&&&&&&&&&&&&      ----==----==    &&&&&&&&&&&&&&&&&&&&",
"&&&&&&&&&&&&&&&&&&&&&&      ----==----==    &&&&&&&&&&&&&&&&&&&&",
"&&&&&&&&&&&&&&&&&&&&%#####  @@++    @@++  ####&&&&&&&&&&&&&&&&&&",
"&&&&&&&&&&&&&&&&&&&&%#####  @@++    @@++  ####&&&&&&&&&&&&&&&&&&",
"&&&&&&&&&&&&&&&&&&&&%#####..OOOoo...OOo...####&&&&&&&&&&&&&&&&&&",
"&&&&&&&&&&&&&&&&&&&&%#########################&&&&&&&&&&&&&&&&&&",
"&&&&&&&&&&&&&&&&&&&&&%######################%%&&&&&&&&&&&&&&&&&&",
"&&&&&&&&&&&&&&&&&&&&&&%#####################&&&&&&&&&&&&&&&&&&&&",
"&&&&&&&&&&&&&&&&&&&&&&&&&&&&&&&&&&&&&&&&&&&&&&&&&&&&&&&&&&&&&&&&",
"&&&&&&&&&&&&&&&&&&&&&&&&&&&&&&&&&&&&&&&&&&&&&&&&&&&&&&&&&&&&&&&&",
"&&&&&&&&&&&&&&&&&&&&&&&&&&&&&&&&&&&&&&&&&&&&&&&&&&&&&&&&&&&&&&&&",
"&&&&&&&&&&&&&&&&&&&&&&&&&&&&&&&&&&&&&&&&&&&&&&&&&&&&&&&&&&&&&&&&",
"&&&&&&&&&&&&&&&&&&&&****&&&&&&&&&&&&&&&&&&&&&&&&&&&&&&&&&&&&&&&&",
"&&&&&&&&&&&&&&&&&&&&****&&&&&&&&&&&&&&&&&&&&&&&&&&&&&&&&&&&&&&&&",
"&&&&&&&&&&&&&&&&&&&&****&&&&&&&&&&&&&&&&&&&&&&&&&&&&&&&&&&&&&&&&",
"&&&&&&&&&&&&&&&&&&&&****&&&&&&&&&&&&&&&&&&&&&&&&&&&&&&&&&&&&&&&&",
"&&&&&&&&&&&&&&&&&&&&&&&&&&&&&&&&&&&&&&&&&&&&&&&&&&&&&&&&&&&&&&&&",
"&&&&&&&&&&&&&&&&&&&&&&&&&&&&&&&&&&&&&&&&&&&&&&&&&&&&&&&&&&&&&&&&",
"&&&&&&&&&&&&&&&&&&&&&&&&&&&&&&&&&&&&&&&&&&&&&&&&&&&&&&&&&&&&&&&&",
"&&&&&&&&&&&&&&&&&&&&&&&&&&&&&&&&&&&&&&&&&&&&&&&&&&&&&&&&&&&&&&&&"
};
