/* XPM */
static char *b8b23f5852ca4a1f93fed0d3d87d7dca1wkVEbQVMEAc5ISy[] = {
/* columns rows colors chars-per-pixel */
"64 64 9 1 ",
"  c black",
". c #402717",
"X c #573A23",
"o c #AC7B5D",
"O c #72A133",
"+ c #9CDB43",
"@ c #D6F264",
"# c #1D438A",
"$ c #2C65B5",
/* pixels */
"++++++++++++++++++++++++++++++++++++++++++++++++++++++++++++++++",
"++++++++++++++++++++++++++++++++++++++++++++++++++++++++++++++++",
"++++++++++++++++++++++++++++++++++++++++++++++++++++++++++++++++",
"++++++++++++++++++++++++++++++++++++++++++++++++++++++++++++++++",
"++++++++++++++++++++++++++++++++++++++++++++++++@@@@@@@@++++++++",
"++++++++++++++++++++++++++++++++++++++++++++++++@@@@@@@@++++++++",
"++++++++++++++++++++++++++++++++++++++++++++++++@@@@@@@@++++++++",
"++++++++++++++++++++++++++++++++++++++++++++++++@@@@@@@@++++++++",
"++++@@@@@@@@++++++++++++++++++++++++++++++++++++++++@@@@@@@@++++",
"++++@@@@@@@@++++++++++++++++++++++++++++++++++++++++@@@@@@@@++++",
"++++@@@@@@@@++++++++++++++++++++++++++++++++++++++++@@@@@@@@++++",
"++++@@@@@@@@++++++++++++++++++++++++++++++++++++++++@@@@@@@@++++",
"++++++++++++++++++++++++++++++++++++++++++++++++++++++++++++++++",
"+++++++++++++++++++++++++++    ++        +++++++++++++++++++++++",
"+++++++++++++++++++++++++++    ++        +++++++++++++++++++++++",
"+++++++++++++++++++++++      XX  ..XXXX  +++++++++++++++++++++++",
"+++++++++++++++++++++++      XX  ..XXXX  +++++++++++++++++++++++",
"+++++++++++++++++++++  ..XXXXXX..XXXX    +++++++++++++++++++++++",
"+++++++++++++++++++++  ..XXXXXX..XXXX    +++++++++++++++++++++++",
"+++++++++++++++++++++  XXXXXXXXXXXXXXXX..  +++++++++++++++++++++",
"+++++++++++++++++++++  XXXXXXXXXXXXXXXX..  +++++++++++++++++++++",
"+++++++++++++++++++  ..XXXXXXXXXXXXXXXXXX..  +++++++++++++++++++",
"+++++++++++++++++++  ..XXXXXXXXXXXXXXXXXX..  +++++++++++++++++++",
"+++++++++++++++++++  ..XXXXXXXXXXXXXXXXXX..  +++++++++++++++++++",
"+++++++++++++++++++  ..XXXXXXXXXXXXXXXXXX..  +++++++++++++++++++",
"+++++++++++++++++++  ..XXXXXXXXXXXXXXXXXX..  +++++++++++++++++++",
"+++++++++++++++++++  ..XXXXXXXXXXXXXXXXXX..  +++++++++++++++++++",
"+++++++++++++++++++  ....XXXXXXXXXXXXXX....  +++++++++++++++++++",
"+++++++++++++++++++  ....XXXXXXXXXXXXXX....  +++++++++++++++++++",
"+++++++++++++++++++++  ......XXXXXX........  +++++++++++++++++++",
"+++++++++++++++++++++  ......XXXXXX........  +++++++++++++++++++",
"+++++++++++++++++++++  ..................  +++++++++++++++++++++",
"+++++++++++++++++++++  ..................  +++++++++@@@@++++++++",
"+++++++++++++++++++++  oo..............oo  +++++++++@@@@++++++++",
"+++++++++++++++++++++  oo..............oo  +++++++++@@@@++++++++",
"+++++++++++++++++++++++  oooo......oooo  +++++++++++@@@@++++++++",
"++++++++++++++++++++@@@  oooo......oooo  +++++++++++++++@@@@++++",
"++++++++++++++++++++@@@  XXooooooooooXX  +++++++++++++++@@@@++++",
"++++++++++++++++++++@@@  XXooooooooooXX  +++++++++++++++@@@@++++",
"++++++++++++++++++++@@@  XXXXXXXXXXXXXX  +++++++++++++++@@@@++++",
"+++++++++++++++++++++++  XXXXXXXXXXXXXX  +++++++++++@@@@++++++++",
"+++++++++++++++++++++++  XXXXXXXXXXXXXX  +++++++++++@@@@++++++++",
"+++++++++++++++++++++++  XXXXXXXXXXXXXX  +++++++++++@@@@++++++++",
"+++++++++++++++++++++  oo..XXXXXXXXXX..oo  +++++++++@@@@++++++++",
"+++++++++++++++++++++  oo..XXXXXXXXXX..oo  +++++++++++++++++++++",
"+++++++++++++++++++++  oo##$$$$##$$$$##oo  +++++++++++++++++++++",
"+++++++++++++++++++++  oo##$$$$##$$$$##oo  +++++++++++++++++++++",
"+++++++++++++++++++++OO  ######  ######  OO+++++++++++++++++++++",
"+++++++++++++++++++++OO  ######  ######  OO+++++++++++++++++++++",
"+++++++++++++++++++OOOO  ....  OO  ....  OOOO+++++++++++++++++++",
"+++++++++++++++++++OOOO  ....  OO  ....  OOOO+++++++++++++++++++",
"+++++++++++++++++++OOOOOOOOOOOOOOOOOOOOOOOOOO+++++++++++++++++++",
"+++++++++++++++++++OOOOOOOOOOOOOOOOOOOOOOOOOO+++++++++++++++++++",
"+++++++++++++++++++++OOOOOOOOOOOOOOOOOOOOOO+++++++++++++++++++++",
"+++++++++++++++++++++OOOOOOOOOOOOOOOOOOOOOO+++++++++++++++++++++",
"++++++++++++++++++++++++++++++++++++++++++++++++++++++++++++++++",
"++++++++++++++++++++@@@@++++++++++++++++++++++++++++++++++++++++",
"++++++++++++++++++++@@@@++++++++++++++++++++++++++++++++++++++++",
"++++++++++++++++++++@@@@++++++++++++++++++++++++++++++++++++++++",
"++++++++++++++++++++@@@@++++++++++++++++++++++++++++++++++++++++",
"++++++++++++++++++++++++++++++++++++++++++++++++++++++++++++++++",
"++++++++++++++++++++++++++++++++++++++++++++++++++++++++++++++++",
"++++++++++++++++++++++++++++++++++++++++++++++++++++++++++++++++",
"++++++++++++++++++++++++++++++++++++++++++++++++++++++++++++++++"
};
