/* XPM */
static char * player_haut2_xpm[] = {
"64 64 9 1",
" 	c #9CDB43",
".	c #D6F264",
"+	c #000000",
"@	c #573A23",
"#	c #402717",
"$	c #AC7B5D",
"%	c #2C65B5",
"&	c #1D438A",
"*	c #72A133",
"                                                                ",
"                                                                ",
"                                                                ",
"                                                                ",
"                                                ........        ",
"                                                ........        ",
"                                                ........        ",
"                                                ........        ",
"    ........                                        ........    ",
"    ........                                        ........    ",
"    ........                                        ........    ",
"    ........                                        ........    ",
"                                                                ",
"                             +++  ++++++++                      ",
"                        ++++++@@++###@@@++                      ",
"                        ++++++@@++###@@@++                      ",
"                     +++###@@@@@##@@@@@+++                      ",
"                     +++###@@@@@##@@@@@+++                      ",
"                     +++@@@@@@@@@@@@@@@@##++                    ",
"                     +++@@@@@@@@@@@@@@@@##++                    ",
"                    +###@@@@@@@@@@@@@@@@@@##++                  ",
"                    +###@@@@@@@@@@@@@@@@@@##++                  ",
"                    +###@@@@@@@@@@@@@@@@@@##++                  ",
"                    +###@@@@@@@@@@@@@@@@@@##++                  ",
"                    +###@@@@@@@@@@@@@@@@@@##++                  ",
"                    +###@@@@@@@@@@@@@@@@@@##++                  ",
"                    +###@@@@@@@@@@@@@@@@@@##++                  ",
"                    +######@@@@@@@@@@@@@####++                  ",
"                    +######@@@@@@@@@@@@@####++                  ",
"                     +++######@@@@@@@#######++                  ",
"                     +++######@@@@@@@#######++                  ",
"                     +++##################++                    ",
"                     +++##################++        ....        ",
"                     +++$$$#############$$++        ....        ",
"                     +++$$$#############$$++        ....        ",
"                        +++$$$#######$$$++          ....        ",
"                    ....+++$$$#######$$$++              ....    ",
"                    ....+++@@$$$$$$$$$$@++              ....    ",
"                    ....+++@@$$$$$$$$$$@++              ....    ",
"                    ....+++@@@@@@@@@@@@@++              ....    ",
"                        +++##@@@@@%%%%%&$$++        ....        ",
"                        +++##@@@@@%%%%%&$$++        ....        ",
"                        +++&&%%%&&@@@@@@$$++        ....        ",
"                        +++&&%%%&&@@@@@@$$++        ....        ",
"                        +++&&%%%&&@@@@@@$$++                    ",
"                        +++&&&&&++@@@@@@++                      ",
"                        +++&&&&&++@@@@@@++                      ",
"                     ***+++&&&&&++++++++****                    ",
"                     ***+++&&&&&++++++++****                    ",
"                    *******++###++************                  ",
"                    **************************                  ",
"                    **************************                  ",
"                     ***********************                    ",
"                     ***********************                    ",
"                     ***********************                    ",
"                                                                ",
"                    ....                                        ",
"                    ....                                        ",
"                    ....                                        ",
"                    ....                                        ",
"                                                                ",
"                                                                ",
"                                                                ",
"                                                                "};
