/* XPM */
static char *_1457f781c634221ad0d8eb6da1190dfFB7JPYTG3VTlvQZJ[] = {
/* columns rows colors chars-per-pixel */
"64 64 13 1 ",
"  c black",
". c #21110D",
"X c #402717",
"o c #573A23",
"O c #AC7B5D",
"+ c #72A133",
"@ c #9CDB43",
"# c #D6F264",
"$ c #1D438A",
"% c #2C65B5",
"& c #787E97",
"* c #A4A8B5",
"= c #C1AC8F",
/* pixels */
"@@@@@@@@@@@@@@@@@@@@@@@@@@@@@@@@@@@@@@@@@@@@@@@@@@@@@@@@@@@@@@@@",
"@@@@@@@@@@@@@@@@@@@@@@@@@@@@@@@@@@@@@@@@@@@@@@@@@@@@@@@@@@@@@@@@",
"@@@@@@@@@@@@@@@@@@@@@@@@@@@@@@@@@@@@@@@@@@@@@@@@@@@@@@@@@@@@@@@@",
"@@@@@@@@@@@@@@@@@@@@@@@@@@@@@@@@@@@@@@@@@@@@@@@@@@@@@@@@@@@@@@@@",
"@@@@@@@@@@@@@@@@@@@@@@@@@@@@@@@@@@@@@@@@@@@@@@@@########@@@@@@@@",
"@@@@@@@@@@@@@@@@@@@@@@@@@@@@@@@@@@@@@@@@@@@@@@@@########@@@@@@@@",
"@@@@@@@@@@@@@@@@@@@@@@@@@@@@@@@@@@@@@@@@@@@@@@@@########@@@@@@@@",
"@@@@@@@@@@@@@@@@@@@@@@@@@@@@@@@@@@@@@@@@@@@@@@@@########@@@@@@@@",
"@@@@########@@@@@@@@@@@@@@@@@@@@@@@@@@@@@@@@@@@@@@@@########@@@@",
"@@@@########@@@@@@@@@@@@@@@@@@@@@@@@@@@@@@@@@@@@@@@@########@@@@",
"@@@@########@@@@@@@@@@@@@@@@@@@@@@@@@@@@@@@@@@@@@@@@########@@@@",
"@@@@########@@@@@@@@@@        @@    @@@@@@@@@@@@@@@@########@@@@",
"@@@@@@@@@@@@@@@@@@@@@@        @@    @@@@@@@@@@@@@@@@@@@@@@@@@@@@",
"@@@@@@@@@@@@@@@@@@@@@@  ooooXX  oo      @@@@@@@@@@@@@@@@@@@@@@@@",
"@@@@@@@@@@@@@@@@@@@@@@  ooooXX  oo      @@@@@@@@@@@@@@@@@@@@@@@@",
"@@@@@@@@@@@@@@@@@@@@@@    ooooXXooXXoooo  @@@@@@@@@@@@@@@@@@@@@@",
"@@@@@@@@@@@@@@@@@@@@@@    ooooXXooXXoooo  @@@@@@@@@@@@@@@@@@@@@@",
"@@@@@@@@@@@@@@@@@@@@  XXoooooooooooooooooo  @@@@@@@@@@@@@@@@@@@@",
"@@@@@@@@@@@@@@@@@@@@  XXoooooooooooooooooo  @@@@@@@@@@@@@@@@@@@@",
"@@@@@@@@@@@@@@@@@@  XXoooooooooooooooooooooo  @@@@@@@@@@@@@@@@@@",
"@@@@@@@@@@@@@@@@@@  XXoooooooooooooooooooooo  @@@@@@@@@@@@@@@@@@",
"@@@@@@@@@@@@@@@@@@  XXooooXXooooooXXXXoooooo  @@@@@@@@@@@@@@@@@@",
"@@@@@@@@@@@@@@@@@@  XXooooXXooooooXXXXoooooo  @@@@@@@@@@@@@@@@@@",
"@@@@@@@@@@@@@@@@@@  XXXXXXXXooooooXXOOOOXXooXX  @@@@@@@@@@@@@@@@",
"@@@@@@@@@@@@@@@@@@  XXXXXXXXooooooXXOOOOXXooXX  @@@@@@@@@@@@@@@@",
"@@@@@@@@@@@@@@@@@@  XXooXXXXooooXXOOOOOOOOXXXX  @@@@@@@@@@@@@@@@",
"@@@@@@@@@@@@@@@@@@  XXooXXXXooooXXOOOOOOOOXXXX  @@@@@@@@@@@@@@@@",
"@@@@@@@@@@@@@@@@@@  XXooooOOXXooOO..====..  XX  @@@@@@@@@@@@@@@@",
"@@@@@@@@@@@@@@@@@@  XXooooOOXXooOO..====..  XX  @@@@@@@@@@@@@@@@",
"@@@@@@@@@@@@@@@@@@  XXXXooOOOOXX==..====..    @@@@@@@@@@@@@@@@@@",
"@@@@@@@@@@@@@@@@@@  XXXXooOOOOXX==..====..    @@@@@@@@@@@@@@@@@@",
"@@@@@@@@@@@@@@@@@@@@  XXXXOOOO============  @@@@@@@@@@@@@@@@@@@@",
"@@@@@@@@@@@@@@@@@@@@  XXXXOOOO============  @@@@@@@@####@@@@@@@@",
"@@@@@@@@@@@@@@@@@@@@@@  XXXXOOOO========OO  @@@@@@@@####@@@@@@@@",
"@@@@@@@@@@@@@@@@@@@@@@  XXXXOOOO========OO  @@@@@@@@####@@@@@@@@",
"@@@@@@@@@@@@@@@@@@@@@@@@  XXXXOOOOOOOOOO  @@@@@@@@@@####@@@@@@@@",
"@@@@@@@@@@@@@@@@@@@@####  XXXXOOOOOOOOOO  @@@@@@@@@@@@@@####@@@@",
"@@@@@@@@@@@@@@@@@@@@####  XXXXoo&&&&&&XX  @@@@@@@@@@@@@@####@@@@",
"@@@@@@@@@@@@@@@@@@@@####  XXXXoo&&&&&&XX  @@@@@@@@@@@@@@####@@@@",
"@@@@@@@@@@@@@@@@@@@@####  XXoooo&&&&**XX  @@@@@@@@@@@@@@####@@@@",
"@@@@@@@@@@@@@@@@@@@@@@@@  XXoooo&&&&**XX  @@@@@@@@@@####@@@@@@@@",
"@@@@@@@@@@@@@@@@@@@@@@  ====oooo&&****XXOO  @@@@@@@@####@@@@@@@@",
"@@@@@@@@@@@@@@@@@@@@@@  ====oooo&&****XXOO  @@@@@@@@####@@@@@@@@",
"@@@@@@@@@@@@@@@@@@@@@@  ====oooo%%%%%%XXOO  @@@@@@@@####@@@@@@@@",
"@@@@@@@@@@@@@@@@@@@@@@++  $$%%%%$$%%%%    ++@@@@@@@@@@@@@@@@@@@@",
"@@@@@@@@@@@@@@@@@@@@@@++  $$%%%%$$%%%%    ++@@@@@@@@@@@@@@@@@@@@",
"@@@@@@@@@@@@@@@@@@@@++++  XXoo    XXoo  ++++++@@@@@@@@@@@@@@@@@@",
"@@@@@@@@@@@@@@@@@@@@++++  XXoo    XXoo  ++++++@@@@@@@@@@@@@@@@@@",
"@@@@@@@@@@@@@@@@@@@@++++++++++++++++++++++++++@@@@@@@@@@@@@@@@@@",
"@@@@@@@@@@@@@@@@@@@@++++++++++++++++++++++++++@@@@@@@@@@@@@@@@@@",
"@@@@@@@@@@@@@@@@@@@@@@++++++++++++++++++++++@@@@@@@@@@@@@@@@@@@@",
"@@@@@@@@@@@@@@@@@@@@@@++++++++++++++++++++++@@@@@@@@@@@@@@@@@@@@",
"@@@@@@@@@@@@@@@@@@@@@@@@@@@@@@@@@@@@@@@@@@@@@@@@@@@@@@@@@@@@@@@@",
"@@@@@@@@@@@@@@@@@@@@@@@@@@@@@@@@@@@@@@@@@@@@@@@@@@@@@@@@@@@@@@@@",
"@@@@@@@@@@@@@@@@@@@@@@@@@@@@@@@@@@@@@@@@@@@@@@@@@@@@@@@@@@@@@@@@",
"@@@@@@@@@@@@@@@@@@@@@@@@@@@@@@@@@@@@@@@@@@@@@@@@@@@@@@@@@@@@@@@@",
"@@@@@@@@@@@@@@@@@@@@####@@@@@@@@@@@@@@@@@@@@@@@@@@@@@@@@@@@@@@@@",
"@@@@@@@@@@@@@@@@@@@@####@@@@@@@@@@@@@@@@@@@@@@@@@@@@@@@@@@@@@@@@",
"@@@@@@@@@@@@@@@@@@@@####@@@@@@@@@@@@@@@@@@@@@@@@@@@@@@@@@@@@@@@@",
"@@@@@@@@@@@@@@@@@@@@####@@@@@@@@@@@@@@@@@@@@@@@@@@@@@@@@@@@@@@@@",
"@@@@@@@@@@@@@@@@@@@@@@@@@@@@@@@@@@@@@@@@@@@@@@@@@@@@@@@@@@@@@@@@",
"@@@@@@@@@@@@@@@@@@@@@@@@@@@@@@@@@@@@@@@@@@@@@@@@@@@@@@@@@@@@@@@@",
"@@@@@@@@@@@@@@@@@@@@@@@@@@@@@@@@@@@@@@@@@@@@@@@@@@@@@@@@@@@@@@@@",
"@@@@@@@@@@@@@@@@@@@@@@@@@@@@@@@@@@@@@@@@@@@@@@@@@@@@@@@@@@@@@@@@"
};
