/* XPM */
static char *result[] = {
/* columns rows colors chars-per-pixel */
"64 64 13 1 ",
"  c black",
". c #21110D",
"X c #402717",
"o c #573A23",
"O c #AC7B5D",
"+ c #72A133",
"@ c #9CDB43",
"# c #D6F264",
"$ c #1D438A",
"% c #2C65B5",
"& c #787E97",
"* c #A4A8B5",
"= c #C1AC8F",
/* pixels */
"@@@@@@@@@@@@@@@@@@@@@@@@@@@@@@@@@@@@@@@@@@@@@@@@@@@@@@@@@@@@@@@@",
"@@@@@@@@@@@@@@@@@@@@@@@@@@@@@@@@@@@@@@@@@@@@@@@@@@@@@@@@@@@@@@@@",
"@@@@@@@@@@@@@@@@@@@@@@@@@@@@@@@@@@@@@@@@@@@@@@@@@@@@@@@@@@@@@@@@",
"@@@@@@@@@@@@@@@@@@@@@@@@@@@@@@@@@@@@@@@@@@@@@@@@@@@@@@@@@@@@@@@@",
"@@@@@@@@@@@@@@@@@@@@@@@@@@@@@@@@@@@@@@@@@@@@@@@@########@@@@@@@@",
"@@@@@@@@@@@@@@@@@@@@@@@@@@@@@@@@@@@@@@@@@@@@@@@@########@@@@@@@@",
"@@@@@@@@@@@@@@@@@@@@@@@@@@@@@@@@@@@@@@@@@@@@@@@@########@@@@@@@@",
"@@@@@@@@@@@@@@@@@@@@@@@@@@@@@@@@@@@@@@@@@@@@@@@@########@@@@@@@@",
"@@@@########@@@@@@@@@@@@@@@@@@@@@@@@@@@@@@@@@@@@@@@@########@@@@",
"@@@@########@@@@@@@@@@@@@@@@@@@@@@@@@@@@@@@@@@@@@@@@########@@@@",
"@@@@########@@@@@@@@@@@@@@@@@@@@@@@@@@@@@@@@@@@@@@@@########@@@@",
"@@@@########@@@@@@@@@@        @    @@@@@@@@@@@@@@@@@########@@@@",
"@@@@@@@@@@@@@@@@@@@@@@        @    @@@@@@@@@@@@@@@@@@@@@@@@@@@@@",
"@@@@@@@@@@@@@@@@@@@@@@  ooooXX oo       @@@@@@@@@@@@@@@@@@@@@@@@",
"@@@@@@@@@@@@@@@@@@@@@@     oooXooXXooooo @@@@@@@@@@@@@@@@@@@@@@@",
"@@@@@@@@@@@@@@@@@@@@@@     oooXooXXooooo @@@@@@@@@@@@@@@@@@@@@@@",
"@@@@@@@@@@@@@@@@@@@@  XXooooooooooooooooo  @@@@@@@@@@@@@@@@@@@@@",
"@@@@@@@@@@@@@@@@@@@@  XXooooooooooooooooo  @@@@@@@@@@@@@@@@@@@@@",
"@@@@@@@@@@@@@@@@@@@@  XXooooooooooooooooo  @@@@@@@@@@@@@@@@@@@@@",
"@@@@@@@@@@@@@@@@@@  XXooooooooooooooooooooo  @@@@@@@@@@@@@@@@@@@",
"@@@@@@@@@@@@@@@@@@  XXooooooooooooooooooooo  @@@@@@@@@@@@@@@@@@@",
"@@@@@@@@@@@@@@@@@@  XXoooooXoooooXXXXXooooo  @@@@@@@@@@@@@@@@@@@",
"@@@@@@@@@@@@@@@@@@  XXoooooXoooooXXXXXooooo  @@@@@@@@@@@@@@@@@@@",
"@@@@@@@@@@@@@@@@@@  XXXXXXXXoooooXXOOOOOXooXX   @@@@@@@@@@@@@@@@",
"@@@@@@@@@@@@@@@@@@  XXooXXXXoooXXOOOOOOOOXXXX   @@@@@@@@@@@@@@@@",
"@@@@@@@@@@@@@@@@@@  XXooXXXXoooXXOOOOOOOOXXXX   @@@@@@@@@@@@@@@@",
"@@@@@@@@@@@@@@@@@@  XXoooooOXXoOO..=====.  XX   @@@@@@@@@@@@@@@@",
"@@@@@@@@@@@@@@@@@@  XXoooooOXXoOO..=====.  XX   @@@@@@@@@@@@@@@@",
"@@@@@@@@@@@@@@@@@@  XXoooooOXXoOO..=====.  XX   @@@@@@@@@@@@@@@@",
"@@@@@@@@@@@@@@@@@@  XXXXoooOOOX==..=====.    @@@@@@@@@@@@@@@@@@@",
"@@@@@@@@@@@@@@@@@@  XXXXoooOOOX==..=====.    @@@@@@@@@@@@@@@@@@@",
"@@@@@@@@@@@@@@@@@@@@  XXXXXOOO===========  @@@@@@@@@@@@@@@@@@@@@",
"@@@@@@@@@@@@@@@@@@@@@@  XXXXOOO=========O  @@@@@@@@@####@@@@@@@@",
"@@@@@@@@@@@@@@@@@@@@@@  XXXXOOO=========O  @@@@@@@@@####@@@@@@@@",
"@@@@@@@@@@@@@@@@@@@@@@@@   XXXOOOOOOOOOO @@@@@@@@@@@####@@@@@@@@",
"@@@@@@@@@@@@@@@@@@@@@@@@   XXXOOOOOOOOOO @@@@@@@@@@@####@@@@@@@@",
"@@@@@@@@@@@@@@@@@@@@####   XXXo&&&&&&&XX @@@@@@@@@@@@@@@####@@@@",
"@@@@@@@@@@@@@@@@@@@@##  ===Xooo&&&&***XXO  @@@@@@@@@@@@@####@@@@",
"@@@@@@@@@@@@@@@@@@@@##  ===Xooo&&&&***XXO  @@@@@@@@@@@@@####@@@@",
"@@@@@@@@@@@@@@@@@@@@##  ===Xooo&&&&***XXO  @@@@@@@@@@@@@####@@@@",
"@@@@@@@@@@@@@@@@@@@@@@  ====ooo&&*****XXO  @@@@@@@@@####@@@@@@@@",
"@@@@@@@@@@@@@@@@@@@@@@  ====ooo&&*****XXO  @@@@@@@@@####@@@@@@@@",
"@@@@@@@@@@@@@@@@@@@@@@@@   Xooo%%%%%%%XX @@@@@@@@@@@####@@@@@@@@",
"@@@@@@@@@@@@@@@@@@@@@@@@   Xooo%%%%%%%XX @@@@@@@@@@@####@@@@@@@@",
"@@@@@@@@@@@@@@@@@@@@@@++   $%%%$$%%%%%  +++@@@@@@@@@@@@@@@@@@@@@",
"@@@@@@@@@@@@@@@@@@@@@@++   $%%%$$%%%%%  +++@@@@@@@@@@@@@@@@@@@@@",
"@@@@@@@@@@@@@@@@@@@@++++   Xoo   XXooo  +++++@@@@@@@@@@@@@@@@@@@",
"@@@@@@@@@@@@@@@@@@@@++++   Xoo   XXooo  +++++@@@@@@@@@@@@@@@@@@@",
"@@@@@@@@@@@@@@@@@@@@++++   Xoo   XXooo  +++++@@@@@@@@@@@@@@@@@@@",
"@@@@@@@@@@@@@@@@@@@@+++++++++++++++++++++++++@@@@@@@@@@@@@@@@@@@",
"@@@@@@@@@@@@@@@@@@@@+++++++++++++++++++++++++@@@@@@@@@@@@@@@@@@@",
"@@@@@@@@@@@@@@@@@@@@@@+++++++++++++++++++++@@@@@@@@@@@@@@@@@@@@@",
"@@@@@@@@@@@@@@@@@@@@@@@@@@@@@@@@@@@@@@@@@@@@@@@@@@@@@@@@@@@@@@@@",
"@@@@@@@@@@@@@@@@@@@@@@@@@@@@@@@@@@@@@@@@@@@@@@@@@@@@@@@@@@@@@@@@",
"@@@@@@@@@@@@@@@@@@@@@@@@@@@@@@@@@@@@@@@@@@@@@@@@@@@@@@@@@@@@@@@@",
"@@@@@@@@@@@@@@@@@@@@@@@@@@@@@@@@@@@@@@@@@@@@@@@@@@@@@@@@@@@@@@@@",
"@@@@@@@@@@@@@@@@@@@@####@@@@@@@@@@@@@@@@@@@@@@@@@@@@@@@@@@@@@@@@",
"@@@@@@@@@@@@@@@@@@@@####@@@@@@@@@@@@@@@@@@@@@@@@@@@@@@@@@@@@@@@@",
"@@@@@@@@@@@@@@@@@@@@####@@@@@@@@@@@@@@@@@@@@@@@@@@@@@@@@@@@@@@@@",
"@@@@@@@@@@@@@@@@@@@@####@@@@@@@@@@@@@@@@@@@@@@@@@@@@@@@@@@@@@@@@",
"@@@@@@@@@@@@@@@@@@@@@@@@@@@@@@@@@@@@@@@@@@@@@@@@@@@@@@@@@@@@@@@@",
"@@@@@@@@@@@@@@@@@@@@@@@@@@@@@@@@@@@@@@@@@@@@@@@@@@@@@@@@@@@@@@@@",
"@@@@@@@@@@@@@@@@@@@@@@@@@@@@@@@@@@@@@@@@@@@@@@@@@@@@@@@@@@@@@@@@",
"@@@@@@@@@@@@@@@@@@@@@@@@@@@@@@@@@@@@@@@@@@@@@@@@@@@@@@@@@@@@@@@@"
};
