/* XPM */
static char *result[] = {
/* columns rows colors chars-per-pixel */
"64 64 13 1 ",
"  c black",
". c #21110D",
"X c #402717",
"o c #573A23",
"O c #AC7B5D",
"+ c #72A133",
"@ c #9CDB43",
"# c #D6F264",
"$ c #1D438A",
"% c #2C65B5",
"& c #787E97",
"* c #A4A8B5",
"= c #C1AC8F",
/* pixels */
"@@@@@@@@@@@@@@@@@@@@@@@@@@@@@@@@@@@@@@@@@@@@@@@@@@@@@@@@@@@@@@@@",
"@@@@@@@@@@@@@@@@@@@@@@@@@@@@@@@@@@@@@@@@@@@@@@@@@@@@@@@@@@@@@@@@",
"@@@@@@@@@@@@@@@@@@@@@@@@@@@@@@@@@@@@@@@@@@@@@@@@@@@@@@@@@@@@@@@@",
"@@@@@@@@@@@@@@@@@@@@@@@@@@@@@@@@@@@@@@@@@@@@@@@@@@@@@@@@@@@@@@@@",
"@@@@@@@@@@@@@@@@@@@@@@@@@@@@@@@@@@@@@@@@@@@@@@@@########@@@@@@@@",
"@@@@@@@@@@@@@@@@@@@@@@@@@@@@@@@@@@@@@@@@@@@@@@@@########@@@@@@@@",
"@@@@@@@@@@@@@@@@@@@@@@@@@@@@@@@@@@@@@@@@@@@@@@@@########@@@@@@@@",
"@@@@@@@@@@@@@@@@@@@@@@@@@@@@@@@@@@@@@@@@@@@@@@@@########@@@@@@@@",
"@@@@########@@@@@@@@@@@@@@@@@@@@@@@@@@@@@@@@@@@@@@@@########@@@@",
"@@@@########@@@@@@@@@@@@@@@@@@@@@@@@@@@@@@@@@@@@@@@@########@@@@",
"@@@@########@@@@@@@@@@@@@@@@@@@@@@@@@@@@@@@@@@@@@@@@########@@@@",
"@@@@########@@@@@@@@@@@@@@@@@@@@@@@@@@@@@@@@@@@@@@@@########@@@@",
"@@@@@@@@@@@@@@@@@@@@@@@@@@@@@@    @@        @@@@@@@@@@@@@@@@@@@@",
"@@@@@@@@@@@@@@@@@@@@@@@@@@@@@@    @@        @@@@@@@@@@@@@@@@@@@@",
"@@@@@@@@@@@@@@@@@@@@@@@@@@      oo  XXoooo  @@@@@@@@@@@@@@@@@@@@",
"@@@@@@@@@@@@@@@@@@@@@@@@@@      oo  XXoooo  @@@@@@@@@@@@@@@@@@@@",
"@@@@@@@@@@@@@@@@@@@@@@@@  ooooXXooXXoooo    @@@@@@@@@@@@@@@@@@@@",
"@@@@@@@@@@@@@@@@@@@@@@@@  ooooXXooXXoooo    @@@@@@@@@@@@@@@@@@@@",
"@@@@@@@@@@@@@@@@@@@@@@  ooooooooooooooooooXX  @@@@@@@@@@@@@@@@@@",
"@@@@@@@@@@@@@@@@@@@@@@  ooooooooooooooooooXX  @@@@@@@@@@@@@@@@@@",
"@@@@@@@@@@@@@@@@@@@@  ooooooooooooooooooooooXX  @@@@@@@@@@@@@@@@",
"@@@@@@@@@@@@@@@@@@@@  ooooooooooooooooooooooXX  @@@@@@@@@@@@@@@@",
"@@@@@@@@@@@@@@@@@@@@  ooooooXXXXooooooXXooooXX  @@@@@@@@@@@@@@@@",
"@@@@@@@@@@@@@@@@@@@@  ooooooXXXXooooooXXooooXX  @@@@@@@@@@@@@@@@",
"@@@@@@@@@@@@@@@@@@  XXooXXOOOOXXooooooXXXXXXXX  @@@@@@@@@@@@@@@@",
"@@@@@@@@@@@@@@@@@@  XXooXXOOOOXXooooooXXXXXXXX  @@@@@@@@@@@@@@@@",
"@@@@@@@@@@@@@@@@@@  XXXXOOOOOOOOXXooooXXXXooXX  @@@@@@@@@@@@@@@@",
"@@@@@@@@@@@@@@@@@@  XXXXOOOOOOOOXXooooXXXXooXX  @@@@@@@@@@@@@@@@",
"@@@@@@@@@@@@@@@@@@  XX  ..====..OOooXXOOooooXX  @@@@@@@@@@@@@@@@",
"@@@@@@@@@@@@@@@@@@  XX  ..====..OOooXXOOooooXX  @@@@@@@@@@@@@@@@",
"@@@@@@@@@@@@@@@@@@@@    ..====..==XXOOOOooXXXX  @@@@@@@@@@@@@@@@",
"@@@@@@@@@@@@@@@@@@@@    ..====..==XXOOOOooXXXX  @@@@@@@@@@@@@@@@",
"@@@@@@@@@@@@@@@@@@@@@@  ============OOOOXXXX  @@@@@@####@@@@@@@@",
"@@@@@@@@@@@@@@@@@@@@@@  ============OOOOXXXX  @@@@@@####@@@@@@@@",
"@@@@@@@@@@@@@@@@@@@@@@  OO========OOOOXXXX  @@@@@@@@####@@@@@@@@",
"@@@@@@@@@@@@@@@@@@@@@@  OO========OOOOXXXX  @@@@@@@@####@@@@@@@@",
"@@@@@@@@@@@@@@@@@@@@@@@@  OOOOOOOOOOXXXX  @@@@@@@@@@@@@@####@@@@",
"@@@@@@@@@@@@@@@@@@@@@@@@  OOOOOOOOOOXXXX  ####@@@@@@@@@@####@@@@",
"@@@@@@@@@@@@@@@@@@@@@@@@  XX&&&&&&ooXXXX  ####@@@@@@@@@@####@@@@",
"@@@@@@@@@@@@@@@@@@@@@@@@  XX&&&&&&ooXXXX  ####@@@@@@@@@@####@@@@",
"@@@@@@@@@@@@@@@@@@@@@@@@  XX**&&&&ooooXX  ####@@@@@@####@@@@@@@@",
"@@@@@@@@@@@@@@@@@@@@@@@@  XX**&&&&ooooXX  @@@@@@@@@@####@@@@@@@@",
"@@@@@@@@@@@@@@@@@@@@@@  OOXX****&&oooo====  @@@@@@@@####@@@@@@@@",
"@@@@@@@@@@@@@@@@@@@@@@  OOXX****&&oooo====  @@@@@@@@####@@@@@@@@",
"@@@@@@@@@@@@@@@@@@@@@@  OOXX%%%%%%oooo====  @@@@@@@@@@@@@@@@@@@@",
"@@@@@@@@@@@@@@@@@@@@@@++    %%%%$$%%%%$$  ++@@@@@@@@@@@@@@@@@@@@",
"@@@@@@@@@@@@@@@@@@@@@@++    %%%%$$%%%%$$  ++@@@@@@@@@@@@@@@@@@@@",
"@@@@@@@@@@@@@@@@@@@@++++++  ooXX    ooXX  ++++@@@@@@@@@@@@@@@@@@",
"@@@@@@@@@@@@@@@@@@@@++++++  ooXX    ooXX  ++++@@@@@@@@@@@@@@@@@@",
"@@@@@@@@@@@@@@@@@@@@++++++++++++++++++++++++++@@@@@@@@@@@@@@@@@@",
"@@@@@@@@@@@@@@@@@@@@++++++++++++++++++++++++++@@@@@@@@@@@@@@@@@@",
"@@@@@@@@@@@@@@@@@@@@@@++++++++++++++++++++++@@@@@@@@@@@@@@@@@@@@",
"@@@@@@@@@@@@@@@@@@@@@@++++++++++++++++++++++@@@@@@@@@@@@@@@@@@@@",
"@@@@@@@@@@@@@@@@@@@@@@@@@@@@@@@@@@@@@@@@@@@@@@@@@@@@@@@@@@@@@@@@",
"@@@@@@@@@@@@@@@@@@@@@@@@@@@@@@@@@@@@@@@@@@@@@@@@@@@@@@@@@@@@@@@@",
"@@@@@@@@@@@@@@@@@@@@@@@@@@@@@@@@@@@@@@@@@@@@@@@@@@@@@@@@@@@@@@@@",
"@@@@@@@@@@@@@@@@@@@@####@@@@@@@@@@@@@@@@@@@@@@@@@@@@@@@@@@@@@@@@",
"@@@@@@@@@@@@@@@@@@@@####@@@@@@@@@@@@@@@@@@@@@@@@@@@@@@@@@@@@@@@@",
"@@@@@@@@@@@@@@@@@@@@####@@@@@@@@@@@@@@@@@@@@@@@@@@@@@@@@@@@@@@@@",
"@@@@@@@@@@@@@@@@@@@@####@@@@@@@@@@@@@@@@@@@@@@@@@@@@@@@@@@@@@@@@",
"@@@@@@@@@@@@@@@@@@@@@@@@@@@@@@@@@@@@@@@@@@@@@@@@@@@@@@@@@@@@@@@@",
"@@@@@@@@@@@@@@@@@@@@@@@@@@@@@@@@@@@@@@@@@@@@@@@@@@@@@@@@@@@@@@@@",
"@@@@@@@@@@@@@@@@@@@@@@@@@@@@@@@@@@@@@@@@@@@@@@@@@@@@@@@@@@@@@@@@",
"@@@@@@@@@@@@@@@@@@@@@@@@@@@@@@@@@@@@@@@@@@@@@@@@@@@@@@@@@@@@@@@@"
};
