/* XPM */
static char *result[] = {
/* columns rows colors chars-per-pixel */
"64 64 13 1 ",
"  c black",
". c #21110D",
"X c #402717",
"o c #573A23",
"O c #AC7B5D",
"+ c #72A133",
"@ c #9CDB43",
"# c #D6F264",
"$ c #1D438A",
"% c #2C65B5",
"& c #787E97",
"* c #A4A8B5",
"= c #C1AC8F",
/* pixels */
"@@@@@@@@@@@@@@@@@@@@@@@@@@@@@@@@@@@@@@@@@@@@@@@@@@@@@@@@@@@@@@@@",
"@@@@@@@@@@@@@@@@@@@@@@@@@@@@@@@@@@@@@@@@@@@@@@@@@@@@@@@@@@@@@@@@",
"@@@@@@@@@@@@@@@@@@@@@@@@@@@@@@@@@@@@@@@@@@@@@@@@@@@@@@@@@@@@@@@@",
"@@@@@@@@@@@@@@@@@@@@@@@@@@@@@@@@@@@@@@@@@@@@@@@@@@@@@@@@@@@@@@@@",
"@@@@@@@@@@@@@@@@@@@@@@@@@@@@@@@@@@@@@@@@@@@@@@@@########@@@@@@@@",
"@@@@@@@@@@@@@@@@@@@@@@@@@@@@@@@@@@@@@@@@@@@@@@@@########@@@@@@@@",
"@@@@@@@@@@@@@@@@@@@@@@@@@@@@@@@@@@@@@@@@@@@@@@@@########@@@@@@@@",
"@@@@@@@@@@@@@@@@@@@@@@@@@@@@@@@@@@@@@@@@@@@@@@@@########@@@@@@@@",
"@@@@########@@@@@@@@@@@@@@@@@@@@@@@@@@@@@@@@@@@@@@@@########@@@@",
"@@@@########@@@@@@@@@@@@@@@@@@@@@@@@@@@@@@@@@@@@@@@@########@@@@",
"@@@@########@@@@@@@@@@@@@@@@@@@@@@@@@@@@@@@@@@@@@@@@########@@@@",
"@@@@########@@@@@@@@@@@@@@@@    @        @@@@@@@@@@@########@@@@",
"@@@@@@@@@@@@@@@@@@@@@@@@@@@@    @        @@@@@@@@@@@@@@@@@@@@@@@",
"@@@@@@@@@@@@@@@@@@@@@@@       oo XXoooo  @@@@@@@@@@@@@@@@@@@@@@@",
"@@@@@@@@@@@@@@@@@@@@@@ oooooXXooXooo     @@@@@@@@@@@@@@@@@@@@@@@",
"@@@@@@@@@@@@@@@@@@@@@@ oooooXXooXooo     @@@@@@@@@@@@@@@@@@@@@@@",
"@@@@@@@@@@@@@@@@@@@@  oooooooooooooooooXX  @@@@@@@@@@@@@@@@@@@@@",
"@@@@@@@@@@@@@@@@@@@@  oooooooooooooooooXX  @@@@@@@@@@@@@@@@@@@@@",
"@@@@@@@@@@@@@@@@@@@@  oooooooooooooooooXX  @@@@@@@@@@@@@@@@@@@@@",
"@@@@@@@@@@@@@@@@@@  oooooooooooooooooooooXX  @@@@@@@@@@@@@@@@@@@",
"@@@@@@@@@@@@@@@@@@  oooooooooooooooooooooXX  @@@@@@@@@@@@@@@@@@@",
"@@@@@@@@@@@@@@@@@@  oooooXXXXXoooooXoooooXX  @@@@@@@@@@@@@@@@@@@",
"@@@@@@@@@@@@@@@@@@  oooooXXXXXoooooXoooooXX  @@@@@@@@@@@@@@@@@@@",
"@@@@@@@@@@@@@@@   XXooXOOOOOXXoooooXXXXXXXX  @@@@@@@@@@@@@@@@@@@",
"@@@@@@@@@@@@@@@   XXXXOOOOOOOOXXoooXXXXooXX  @@@@@@@@@@@@@@@@@@@",
"@@@@@@@@@@@@@@@   XXXXOOOOOOOOXXoooXXXXooXX  @@@@@@@@@@@@@@@@@@@",
"@@@@@@@@@@@@@@@   XX  .=====..OOoXXOoooooXX  @@@@@@@@@@@@@@@@@@@",
"@@@@@@@@@@@@@@@   XX  .=====..OOoXXOoooooXX  @@@@@@@@@@@@@@@@@@@",
"@@@@@@@@@@@@@@@   XX  .=====..OOoXXOoooooXX  @@@@@@@@@@@@@@@@@@@",
"@@@@@@@@@@@@@@@@@@    .=====..==XOOOoooXXXX  @@@@@@@@@@@@@@@@@@@",
"@@@@@@@@@@@@@@@@@@    .=====..==XOOOoooXXXX  @@@@@@@@@@@@@@@@@@@",
"@@@@@@@@@@@@@@@@@@@@  ===========OOOXXXXX  @@@@@@@@@@@@@@@@@@@@@",
"@@@@@@@@@@@@@@@@@@@@  O=========OOOXXXX  @@@@@@@@@@@####@@@@@@@@",
"@@@@@@@@@@@@@@@@@@@@  O=========OOOXXXX  @@@@@@@@@@@####@@@@@@@@",
"@@@@@@@@@@@@@@@@@@@@@@ OOOOOOOOOOXXX   @@@@@@@@@@@@@####@@@@@@@@",
"@@@@@@@@@@@@@@@@@@@@@@ OOOOOOOOOOXXX   @@@@@@@@@@@@@####@@@@@@@@",
"@@@@@@@@@@@@@@@@@@@@## XX&&&&&&&oXXX   @@@@@@@@@@@@@@@@@####@@@@",
"@@@@@@@@@@@@@@@@@@@@  OXX***&&&&oooX===  @@@@@@@@@@@@@@@####@@@@",
"@@@@@@@@@@@@@@@@@@@@  OXX***&&&&oooX===  @@@@@@@@@@@@@@@####@@@@",
"@@@@@@@@@@@@@@@@@@@@  OXX***&&&&oooX===  @@@@@@@@@@@@@@@####@@@@",
"@@@@@@@@@@@@@@@@@@@@  OXX*****&&ooo====  @@@@@@@@@@@####@@@@@@@@",
"@@@@@@@@@@@@@@@@@@@@  OXX*****&&ooo====  @@@@@@@@@@@####@@@@@@@@",
"@@@@@@@@@@@@@@@@@@@@@@ XX%%%%%%%oooX   @@@@@@@@@@@@@####@@@@@@@@",
"@@@@@@@@@@@@@@@@@@@@@@ XX%%%%%%%oooX   @@@@@@@@@@@@@####@@@@@@@@",
"@@@@@@@@@@@@@@@@@@@@+++  %%%%%$$%%%$   ++@@@@@@@@@@@@@@@@@@@@@@@",
"@@@@@@@@@@@@@@@@@@@@+++  %%%%%$$%%%$   ++@@@@@@@@@@@@@@@@@@@@@@@",
"@@@@@@@@@@@@@@@@@@+++++  oooXX   ooX   ++++@@@@@@@@@@@@@@@@@@@@@",
"@@@@@@@@@@@@@@@@@@+++++  oooXX   ooX   ++++@@@@@@@@@@@@@@@@@@@@@",
"@@@@@@@@@@@@@@@@@@+++++  oooXX   ooX   ++++@@@@@@@@@@@@@@@@@@@@@",
"@@@@@@@@@@@@@@@@@@+++++++++++++++++++++++++@@@@@@@@@@@@@@@@@@@@@",
"@@@@@@@@@@@@@@@@@@+++++++++++++++++++++++++@@@@@@@@@@@@@@@@@@@@@",
"@@@@@@@@@@@@@@@@@@@@+++++++++++++++++++++@@@@@@@@@@@@@@@@@@@@@@@",
"@@@@@@@@@@@@@@@@@@@@@@@@@@@@@@@@@@@@@@@@@@@@@@@@@@@@@@@@@@@@@@@@",
"@@@@@@@@@@@@@@@@@@@@@@@@@@@@@@@@@@@@@@@@@@@@@@@@@@@@@@@@@@@@@@@@",
"@@@@@@@@@@@@@@@@@@@@@@@@@@@@@@@@@@@@@@@@@@@@@@@@@@@@@@@@@@@@@@@@",
"@@@@@@@@@@@@@@@@@@@@@@@@@@@@@@@@@@@@@@@@@@@@@@@@@@@@@@@@@@@@@@@@",
"@@@@@@@@@@@@@@@@@@@@####@@@@@@@@@@@@@@@@@@@@@@@@@@@@@@@@@@@@@@@@",
"@@@@@@@@@@@@@@@@@@@@####@@@@@@@@@@@@@@@@@@@@@@@@@@@@@@@@@@@@@@@@",
"@@@@@@@@@@@@@@@@@@@@####@@@@@@@@@@@@@@@@@@@@@@@@@@@@@@@@@@@@@@@@",
"@@@@@@@@@@@@@@@@@@@@####@@@@@@@@@@@@@@@@@@@@@@@@@@@@@@@@@@@@@@@@",
"@@@@@@@@@@@@@@@@@@@@@@@@@@@@@@@@@@@@@@@@@@@@@@@@@@@@@@@@@@@@@@@@",
"@@@@@@@@@@@@@@@@@@@@@@@@@@@@@@@@@@@@@@@@@@@@@@@@@@@@@@@@@@@@@@@@",
"@@@@@@@@@@@@@@@@@@@@@@@@@@@@@@@@@@@@@@@@@@@@@@@@@@@@@@@@@@@@@@@@",
"@@@@@@@@@@@@@@@@@@@@@@@@@@@@@@@@@@@@@@@@@@@@@@@@@@@@@@@@@@@@@@@@"
};
