/* XPM */
static char * ennemyd2_xpm[] = {
"64 64 12 1",
" 	c #9CDB43",
".	c #D6F264",
"+	c #1D235D",
"@	c #425B9E",
"#	c #4D8AB3",
"$	c #65B1B8",
"%	c #FFFFFF",
"&	c #000000",
"*	c #33418A",
"=	c #9E2E46",
"-	c #9DB24A",
";	c #72A133",
"                                                                ",
"                                                                ",
"                                                                ",
"                                                                ",
"                                                ........        ",
"                                                ........        ",
"                                                ........        ",
"                                                ........        ",
"    ........                                        ........    ",
"    ........                                        ........    ",
"    ........                                        ........    ",
"    ........                                        ........    ",
"                          ++++++++++++                          ",
"                          ++++++++++++                          ",
"                        ++@@##########++                        ",
"                        ++@@##########++                        ",
"                      ++@@####$$$$$$$$@@++                      ",
"                      ++@@####$$$$$$$$@@++                      ",
"                      ++####$$$$$$$$$$$$++                      ",
"                      ++####$$$$$$$$$$$$++                      ",
"                      ++####$$%%&&$$$$&&@@++                    ",
"                      ++####$$%%&&$$$$&&@@++                    ",
"                    ++@@##$$$$&&&&$$$$&&##++                    ",
"                    ++@@##$$$$&&&&$$$$&&##++                    ",
"                    ++@@##$$$$$$$$$$$$$$##++                    ",
"                    ++@@##$$$$$$$$$$$$$$##++                    ",
"                    ++@@##$$$$$$$$$$$$$$##++                    ",
"                    ++@@##$$$$$$$$$$$$$$##++                    ",
"                    ++@@##$$$$********$$##++                    ",
"                    ++@@##$$$$********$$##++                    ",
"                    ++@@##$$======****$$##++                    ",
"                    ++@@##$$======****$$##++                    ",
"                    ++@@@@##$$$$$$$$$$##@@++        ....        ",
"                    ++@@@@##$$$$$$$$$$##@@++        ....        ",
"                      ++@@@@##########@@@@++        ....        ",
"                      ++@@@@##########@@@@++        ....        ",
"                    ....++@@@@@@@@@@@@@@++              ....    ",
"                    ....++@@@@@@@@@@@@@@++              ....    ",
"                    ..----++++++++++++++;;;;            ....    ",
"                    ..----++++++++++++++;;;;            ....    ",
"                    ;;;;;;;;;;;;;;;;;;;;;;;;;;      ....        ",
"                    ;;;;;;;;;;;;;;;;;;;;;;;;;;      ....        ",
"                    ;;;;;;;;;;;;;;;;;;;;;;;;;;      ....        ",
"                    ;;;;;;;;;;;;;;;;;;;;;;;;;;      ....        ",
"                    ;;;;;;;;;;;;;;;;;;;;;;;;;;                  ",
"                    ;;;;;;;;;;;;;;;;;;;;;;;;;;                  ",
"                      ;;;;;;;;;;;;;;;;;;;;;;                    ",
"                      ;;;;;;;;;;;;;;;;;;;;;;                    ",
"                                                                ",
"                                                                ",
"                                                                ",
"                                                                ",
"                                                                ",
"                                                                ",
"                                                                ",
"                                                                ",
"                    ....                                        ",
"                    ....                                        ",
"                    ....                                        ",
"                    ....                                        ",
"                                                                ",
"                                                                ",
"                                                                ",
"                                                                "};
