/* XPM */
static char *_c2fa7baf2034fd2dcf102143690e6e5IObpk7kqXHYKbVao[] = {
/* columns rows colors chars-per-pixel */
"64 64 10 1 ",
"  c #423934",
". c #5A4E44",
"X c #796755",
"o c #A08662",
"O c #9CDB43",
"+ c #D6F264",
"@ c #40AE9E",
"# c #249FDE",
"$ c #20D6C7",
"% c #A6FCDB",
/* pixels */
"OOOOOOOOOOOOOOOOOOOOOOOOOOOOOOOOOOOOOOOOOOOOOOOOOOOOOOOOOOOOOOOO",
"OOOOOOOOOOOOOOOOOOOOOOOOOOOOOOOOOOOOOOOOOOOOOOOOOOOOOOOOOOOOOOOO",
"OOOOOOOOOOOOOOOOOOOOOOOOOOOOOOOOOOOOOOOOOOOOOOOOOOOOOOOOOOOOOOOO",
"OOOOOOOOOOOOOOOOOOOOOOOOOOOOOOOOOOOOOOOOOOOOOOOOOOOOOOOOOOOOOOOO",
"OOOOOOOOOOOOOOOOOOOOOOOOOOOOOOOOOOOOOOOOOOOOOOOOOOOOOOOOOOOOOOOO",
"OOOOOOOOOOOOOOOOOOOOOOOOOOOOOOOOOOOOOOOOOOOOOOOOOOOOOOOOOOOOOOOO",
"OOOOOOOOOOOOOOOOOOOOOOOOOOOOOOOOOOOOOOOOOOOOOOOOOOOOOOOOOOOOOOOO",
"OOOOOOOOOOOOOOOOOOOOOOOOOOOOOOOOOOOOOOOOOOOOOOOOOOOOOOOOOOOOOOOO",
"OOOOOOOOOOOOOOOO++++++++OOOOOOOOOOOOOOOOOOOOOOOOOOOOOOOOOOOO    ",
"OOOOOOOOOOOOOOOO++++++++OOOOOOOOOOOOOOOOOOOOOOOOOOOOOOOOOOOO    ",
"OOOOOOOOOOOOOOOO++++++++OOOOOOOOOOOOOOOOOOOOOOOOOOOOOOOOOOOO    ",
"OOOOOOOOOOOOOOOO++++++++OOOOOOOOOOOOOOOOOOOOOOOOOOOOOOOOOOOO    ",
"OOOOOOOOOOOOOOOOOOOOOOOOOOOOOOOOOOOOOOOOOOOOOOOOOOOOOOOOOOOO    ",
"OOOOOOOOOOOOOOOOOOOOOOOOOOOOOOOOOOOOOOOOOOOOOOOOOOOOOOOOOOOO    ",
"OOOOOOOOOOOOOOOOOOOOOOOOOOOOOOOOOOOOOOOOOOOOOOOOOOOOOOOOOOOO    ",
"OOOOOOOOOOOOOOOOOOOOOOOOOOOOOOOOOOOOOOOOOOOOOOOOOOOOOOOOOOOO    ",
"    OOOO++++    OOOOOOOO    OOOOOOOOOOOOOOOOOOOO    OOOOOOOO    ",
"    OOOO++++    OOOOOOOO    OOOOOOOOOOOOOOOOOOOO    OOOOOOOO    ",
"    OOOO++++    OOOOOOOO    OOOOOOOOOOOOOOOOOOOO    OOOOOOOO    ",
"    OOOO++++    OOOOOOOO    OOOOOOOOOOOOOOOOOOOO    OOOOOOOO    ",
"        OOOOOOOO            OOOOOOOOOOOO    OOOO            oooo",
"        OOOOOOOO            OOOOOOOOOOOO    OOOO            oooo",
"        OOOOOOOO            OOOOOOOOOOOO    OOOO            oooo",
"        OOOOOOOO            OOOOOOOOOOOO    OOOO            oooo",
"....        OOOO    oooo        OOOO                ....    oooo",
"....        OOOO    oooo        OOOO                ....    oooo",
"....        OOOO    oooo        OOOO                ....    oooo",
"....        OOOO    oooo        OOOO                ....    oooo",
"....                XXXX                ........        ....XXXX",
"....                XXXX                ........        ....XXXX",
"....                XXXX                ........        ....XXXX",
"....                XXXX                ........        ....XXXX",
"....        ............    ....        ....    XXXX        ....",
"....        ............    ....        ....    XXXX        ....",
"....        ............    ....        ....    XXXX        ....",
"....        ............    ....        ....    XXXX        ....",
"....    XXXX            XXXX                    XXXX....    XXXX",
"....    XXXX            XXXX                    XXXX....    XXXX",
"....    XXXX            XXXX                    XXXX....    XXXX",
"....    XXXX            XXXX                    XXXX....    XXXX",
"....    ....XXXXXXXXXXXXXXXX....    ....XXXXXXXXXXXX....    ....",
"....    ....XXXXXXXXXXXXXXXX....    ....XXXXXXXXXXXX....    ....",
"....    ....XXXXXXXXXXXXXXXX....    ....XXXXXXXXXXXX....    ....",
"....    ....XXXXXXXXXXXXXXXX....    ....XXXXXXXXXXXX....    ....",
"            ................            ............            ",
"            ................            ............            ",
"            ................            ............            ",
"            ................            ............            ",
"    %%%%%%%%                %%%%%%%%%%%%            %%%%%%%%%%%%",
"    %%%%%%%%                %%%%%%%%%%%%            %%%%%%%%%%%%",
"    %%%%%%%%                %%%%%%%%%%%%            %%%%%%%%%%%%",
"    %%%%%%%%                %%%%%%%%%%%%            %%%%%%%%%%%%",
"%%%%########%%%%%%%%%%%%%%%%############%%%%%%%%%%%%############",
"%%%%########%%%%%%%%%%%%%%%%############%%%%%%%%%%%%############",
"%%%%########%%%%%%%%%%%%%%%%############%%%%%%%%%%%%############",
"%%%%########%%%%%%%%%%%%%%%%############%%%%%%%%%%%%############",
"####@@@@@@@@################@@@@@@@@@@@@############@@@@@@@@@@@@",
"####@@@@@@@@################@@@@@@@@@@@@############@@@@@@@@@@@@",
"####@@@@@@@@################@@@@@@@@@@@@############@@@@@@@@@@@@",
"####@@@@@@@@################@@@@@@@@@@@@############@@@@@@@@@@@@",
"@@@@$$$$$$$$@@@@@@@@@@@@@@@@$$$$$$$$$$$$@@@@@@@@@@@@$$$$$$$$$$$$",
"@@@@$$$$$$$$@@@@@@@@@@@@@@@@$$$$$$$$$$$$@@@@@@@@@@@@$$$$$$$$$$$$",
"@@@@$$$$$$$$@@@@@@@@@@@@@@@@$$$$$$$$$$$$@@@@@@@@@@@@$$$$$$$$$$$$",
"@@@@$$$$$$$$@@@@@@@@@@@@@@@@$$$$$$$$$$$$@@@@@@@@@@@@$$$$$$$$$$$$"
};
