/* XPM */
static char * coin_droit_xpm[] = {
"64 64 9 1",
" 	c #9CDB43",
".	c #D6F264",
"+	c #423934",
"@	c #249FDE",
"#	c #20D6C7",
"$	c #A6FCDB",
"%	c #40AE9E",
"&	c #5A4E44",
"*	c #796755",
"                    ....++++@@@@################################",
"                    ....++++@@@@################################",
"                    ....++++@@@@################################",
"                    ....++++@@@@################################",
"                            ++++$$$$%%%%########################",
"                            ++++$$$$%%%%########################",
"                            ++++$$$$%%%%########################",
"                            ++++$$$$%%%%########################",
"                    ++++++++++++@@@@%%%%########################",
"                    ++++++++++++@@@@%%%%########################",
"                    ++++++++++++@@@@%%%%########################",
"                    ++++++++++++@@@@%%%%########################",
"            ++++        &&&&++++@@@@%%%%########################",
"            ++++        &&&&++++@@@@%%%%########################",
"            ++++        &&&&++++@@@@%%%%########################",
"            ++++        &&&&++++@@@@%%%%########################",
"            ++++++++    &&&&++++@@@@%%%%########################",
"            ++++++++    &&&&++++@@@@%%%%########################",
"            ++++++++    &&&&++++@@@@%%%%########################",
"            ++++++++    &&&&++++@@@@%%%%########################",
"    ++++    ++++****++++++++++++$$$$%%%%########################",
"    ++++    ++++****++++++++++++$$$$%%%%########################",
"    ++++    ++++****++++++++++++$$$$%%%%########################",
"    ++++    ++++****++++++++++++$$$$%%%%########################",
"++++++++    ++++++++&&&&++++@@@@$$$$%%%%########################",
"++++++++    ++++++++&&&&++++@@@@$$$$%%%%########################",
"++++++++    ++++++++&&&&++++@@@@$$$$%%%%########################",
"++++++++    ++++++++&&&&++++@@@@$$$$%%%%########################",
"&&&&++++++++++++****++++++++++++@@@@############################",
"&&&&++++++++++++****++++++++++++@@@@############################",
"&&&&++++++++++++****++++++++++++@@@@############################",
"&&&&++++++++++++****++++++++++++@@@@############################",
"&&&&++++****************&&&&++++$$$$%%%%########################",
"&&&&++++****************&&&&++++$$$$%%%%########################",
"&&&&++++****************&&&&++++$$$$%%%%########################",
"&&&&++++****************&&&&++++$$$$%%%%########################",
"++++&&&&&&&&****&&&&&&&&&&&&++++$$$$%%%%########################",
"++++&&&&&&&&****&&&&&&&&&&&&++++$$$$%%%%########################",
"++++&&&&&&&&****&&&&&&&&&&&&++++$$$$%%%%########################",
"++++&&&&&&&&****&&&&&&&&&&&&++++$$$$%%%%########################",
"++++++++&&&&&&&&&&&&&&&&++++++++$$$$%%%%########################",
"++++++++&&&&&&&&&&&&&&&&++++++++$$$$%%%%########################",
"++++++++&&&&&&&&&&&&&&&&++++++++$$$$%%%%########################",
"++++++++&&&&&&&&&&&&&&&&++++++++$$$$%%%%########################",
"&&&&++++++++++++++++++++++++$$$$@@@@%%%%########################",
"&&&&++++++++++++++++++++++++$$$$@@@@%%%%########################",
"&&&&++++++++++++++++++++++++$$$$@@@@%%%%########################",
"&&&&++++++++++++++++++++++++$$$$@@@@%%%%########################",
"++++$$$$$$$$&&&&++++++++$$$$@@@@%%%%############################",
"++++$$$$$$$$&&&&++++++++$$$$@@@@%%%%############################",
"++++$$$$$$$$&&&&++++++++$$$$@@@@%%%%############################",
"++++$$$$$$$$&&&&++++++++$$$$@@@@%%%%############################",
"$$$$@@@@@@@@$$$$$$$$$$$$@@@@%%%%################################",
"$$$$@@@@@@@@$$$$$$$$$$$$@@@@%%%%################################",
"$$$$@@@@@@@@$$$$$$$$$$$$@@@@%%%%################################",
"$$$$@@@@@@@@$$$$$$$$$$$$@@@@%%%%################################",
"@@@@%%%%%%%%@@@@@@@@@@@@%%%%####################################",
"@@@@%%%%%%%%@@@@@@@@@@@@%%%%####################################",
"@@@@%%%%%%%%@@@@@@@@@@@@%%%%####################################",
"@@@@%%%%%%%%@@@@@@@@@@@@%%%%####################################",
"%%%%########%%%%%%%%%%%%########################################",
"%%%%########%%%%%%%%%%%%########################################",
"%%%%########%%%%%%%%%%%%########################################",
"%%%%########%%%%%%%%%%%%########################################"};
