/* XPM */
static char * coin_haut_droite_xpm[] = {
"64 64 7 1",
" 	c #40AE9E",
".	c #20D6C7",
"+	c #423934",
"@	c #796755",
"#	c #9CDB43",
"$	c #5A4E44",
"%	c #D6F264",
"    ........            ........................................",
"    ........            ........................................",
"    ........            ........................................",
"    ........            ........................................",
"++++++++....++++++++++++++++....................................",
"++++++++....++++++++++++++++....................................",
"++++++++....++++++++++++++++....................................",
"++++++++....++++++++++++++++....................................",
"@@@@@@@@++++@@@@@@@@####$$$$++++................................",
"@@@@@@@@++++@@@@@@@@####$$$$++++................................",
"@@@@@@@@++++@@@@@@@@####$$$$++++................................",
"@@@@@@@@++++@@@@@@@@####$$$$++++................................",
"++++####%%%%++++########++++++++................................",
"++++####%%%%++++########++++++++................................",
"++++####%%%%++++########++++++++................................",
"++++####%%%%++++########++++++++................................",
"########%%%%####%%%%%%%%####++++................................",
"########%%%%####%%%%%%%%####++++................................",
"########%%%%####%%%%%%%%####++++................................",
"########%%%%####%%%%%%%%####++++................................",
"########################%%%%%%%%................................",
"########################%%%%%%%%................................",
"########################%%%%%%%%................................",
"########################%%%%%%%%................................",
"############%%%%%%%%############................................",
"############%%%%%%%%############................................",
"############%%%%%%%%############................................",
"############%%%%%%%%############................................",
"########################++++    ................................",
"########################++++    ................................",
"########################++++    ................................",
"########################++++    ................................",
"####################++++++++++++    ............................",
"####################++++++++++++    ............................",
"####################++++++++++++    ............................",
"####################++++++++++++    ............................",
"########################++++++++    ............................",
"########################++++++++    ............................",
"########################++++++++    ............................",
"########################++++++++    ............................",
"####################%%%%####++++    ............................",
"####################%%%%####++++    ............................",
"####################%%%%####++++    ............................",
"####################%%%%####++++    ............................",
"########################$$$$++++    ............................",
"########################$$$$++++    ............................",
"########################$$$$++++    ............................",
"########################$$$$++++    ............................",
"####################++++$$$$++++    ............................",
"####################++++$$$$++++    ............................",
"####################++++$$$$++++    ............................",
"####################++++$$$$++++    ............................",
"################++++@@@@$$$$++++    ............................",
"################++++@@@@$$$$++++    ............................",
"################++++@@@@$$$$++++    ............................",
"################++++@@@@$$$$++++    ............................",
"############################++++    ............................",
"############################++++    ............................",
"############################++++    ............................",
"############################++++    ............................",
"########################++++++++    ............................",
"########################++++++++    ............................",
"########################++++++++    ............................",
"########################++++++++    ............................"};
