/* XPM */
static char * coin_haut_gauche_xpm[] = {
"64 64 7 1",
" 	c #20D6C7",
".	c #40AE9E",
"+	c #423934",
"@	c #5A4E44",
"#	c #9CDB43",
"$	c #D6F264",
"%	c #796755",
"                                               ............     ",
"                                               ............     ",
"                                               ............     ",
"                                               ............     ",
"                                       ++++++++        +++++++++",
"                                       ++++++++        +++++++++",
"                                       ++++++++        +++++++++",
"                                       ++++++++        +++++++++",
"                                   ++++@@@@####++++$$$$@@@@@@@@%",
"                                   ++++@@@@####++++$$$$@@@@@@@@%",
"                                   ++++@@@@####++++$$$$@@@@@@@@%",
"                                   ++++@@@@####++++$$$$@@@@@@@@%",
"                                   ++++@@@@########$$$$$$$$####+",
"                                   ++++@@@@########$$$$$$$$####+",
"                                   ++++@@@@########$$$$$$$$####+",
"                                   ++++@@@@########$$$$$$$$####+",
"                                   ++++####$$$$$$$$####$$$$#####",
"                                   ++++####$$$$$$$$####$$$$#####",
"                                   ++++####$$$$$$$$####$$$$#####",
"                                   ++++####$$$$$$$$####$$$$#####",
"                                   $$$$$$$$#####################",
"                                   $$$$$$$$#####################",
"                                   $$$$$$$$#####################",
"                                   $$$$$$$$#####################",
"                                   ############$$$$$$$$#########",
"                                   ############$$$$$$$$#########",
"                                   ############$$$$$$$$#########",
"                                   ############$$$$$$$$#########",
"                                   ++++#########################",
"                                   ++++#########################",
"                                   ++++#########################",
"                                   ++++#########################",
"                               ....++++++++++++#################",
"                               ....++++++++++++#################",
"                               ....++++++++++++#################",
"                               ....++++++++++++#################",
"                               ....++++%%%%#####################",
"                               ....++++%%%%#####################",
"                               ....++++%%%%#####################",
"                               ....++++%%%%#####################",
"                               ....++++####$$$$#################",
"                               ....++++####$$$$#################",
"                               ....++++####$$$$#################",
"                               ....++++####$$$$#################",
"                               ....++++++++#####################",
"                               ....++++++++#####################",
"                               ....++++++++#####################",
"                               ....++++++++#####################",
"                               ....++++++++++++#################",
"                               ....++++++++++++#################",
"                               ....++++++++++++#################",
"                               ....++++++++++++#################",
"                               ....++++@@@@%%%%++++############$",
"                               ....++++@@@@%%%%++++############$",
"                               ....++++@@@@%%%%++++############$",
"                               ....++++@@@@%%%%++++############$",
"                               ....#############################",
"                               ....#############################",
"                               ....#############################",
"                               ....#############################",
"                               ....++++#########################",
"                               ....++++#########################",
"                               ....++++#########################",
"                               ....++++#########################"};
