/* XPM */
static char *e406358fba5745f3e81ba3a3bc7c5da3k7XzftpH8A4D4Isl[] = {
/* columns rows colors chars-per-pixel */
"64 64 8 1 ",
"  c #1A7A3E",
". c #14A02E",
"X c #59C135",
"o c #9CDB43",
"O c #D6F264",
"+ c #477D85",
"@ c #849BE4",
"# c #B9BFFB",
/* pixels */
"oooooooooooooooooooooooooooooooooooooooooooooooooooooooooooooooo",
"oooooooooooooooooooooooooooooooooooooooooooooooooooooooooooooooo",
"oooooooooooooooooooooooooooooooooooooooooooooooooooooooooooooooo",
"oooooooooooooooooooooooooooooooooooooooooooooooooooooooooooooooo",
"ooooooooooooooo@@@@@@@@ooooooo@@@@ooooooooooooooOOOOOOOOoooooooo",
"ooooooooooooooo@@@@@@@@ooooooo@@@@ooooooooooooooOOOOOOOOoooooooo",
"ooooooooooooooo@@@@@@@@ooooooo@@@@ooooooooooooooOOOOOOOOoooooooo",
"ooooooooooooooo@@@@@@@@ooooooo@@@@ooooooooooooooOOOOOOOOoooooooo",
"ooooOOOOOOOOooo@@@@@@@@ooooooo@@@@ooooooooooooooooooOOOOOOOOoooo",
"ooooOOOOOOOOooo@@@@@@@@ooooooo@@@@ooooooooooooooooooOOOOOOOOoooo",
"ooooOOOOOOOOooo@@@@@@@@ooooooo@@@@ooooooooooooooooooOOOOOOOOoooo",
"ooooOOOO@@@@@@@++++++++@@@@@@@++++@@@@@@@oooooooooooOOOOOOOOoooo",
"oooooooo@@@@@@@++++++++@@@@@@@++++@@@@@@@ooooooooooooooooooooooo",
"oooooooo@@@@@@@++++++++@@@@@@@++++@@@@@@@ooooooooooooooooooooooo",
"oooooooo@@@@@@@++++++++#######++++@@@@@@@ooooooooooooooooooooooo",
"oooooooo@@@@@@@++++++++#######++++@@@@@@@ooooooooooooooooooooooo",
"oooooooo@@@@@@@++++++++#######++++@@@@@@@ooooooooooooooooooooooo",
"oooooooo@@@@@@@++++++++#######++++@@@@@@@ooooooooooooooooooooooo",
"oooooooo@@@@@@@++++++++#######++++@@@@@@@ooooooooooooooooooooooo",
"oooooooo@@@@@@@++++++++#######++++@@@@@@@ooooooooooooooooooooooo",
"oooooooo@@@@@@@++++++++#######++++@@@@@@@ooooooooooooooooooooooo",
"oooooooo@@@@@@@++++++++#######++++@@@@@@@ooooooooooooooooooooooo",
"oooooooo@@@@@@@########+++++++####@@@@@@@XXXXXXX.......ooooooooo",
"oooooooo@@@@@@@########+++++++####@@@@@@@XXXXXXX.......ooooooooo",
"oooooooo@@@@@@@########+++++++####@@@@@@@XXXXXXX.......ooooooooo",
"oooooooo@@@@@@@########+++++++####@@@@@@@XXXXXXX.......ooooooooo",
"oooooooo@@@@@@@########+++++++####@@@@@@@XXXXXXX.......ooooooooo",
"oooooooo@@@@@@@########+++++++####@@@@@@@XXXXXXX.......ooooooooo",
"oooooooo@@@@@@@########+++++++####@@@@@@@XXXXXXX.......ooooooooo",
"ooooo...XXXXXXX++++++++#######++++.......       oooooooooooooooo",
"ooooo...XXXXXXX++++++++#######++++.......       oooooooooooooooo",
"ooooo...XXXXXXX++++++++#######++++.......       oooooooooooooooo",
"ooooo...XXXXXXX++++++++#######++++.......       ooooOOOOoooooooo",
"ooooo...XXXXXXX++++++++#######++++.......       ooooOOOOoooooooo",
"ooooo...XXXXXXX++++++++#######++++.......       ooooOOOOoooooooo",
"ooooo...XXXXXXX++++++++#######++++.......       ooooOOOOoooooooo",
"oooooooo       ........OOOOOoo....       oooooooooooooooOOOOoooo",
"oooooooo       ........OOOOOoo....       oooooooooooooooOOOOoooo",
"oooooooo       ........OOOOOoo....       oooooooooooooooOOOOoooo",
"oooooooo       ........OOOOOoo....       oooooooooooooooOOOOoooo",
"oooooooo       ........ooooooo....       oooooooooooOOOOoooooooo",
"oooooooo       ........ooooooo....       oooooooooooOOOOoooooooo",
"oooooooo       ........ooooooo....       oooooooooooOOOOoooooooo",
"oooooooo       ........ooooooo....       oooooooooooOOOOoooooooo",
"oooooooo       ........ooooooo....       ooooooooooooooooooooooo",
"oooooooo       ........ooooooo....       ooooooooooooooooooooooo",
"oooooooo       ........ooooooo....       ooooooooooooooooooooooo",
"ooooooooooooooo        .......    oooooooooooooooooooooooooooooo",
"ooooooooooooooo        .......    oooooooooooooooooooooooooooooo",
"ooooooooooooooo        .......    oooooooooooooooooooooooooooooo",
"ooooooooooooooo        .......    oooooooooooooooooooooooooooooo",
"ooooooooooooooo        .......    oooooooooooooooooooooooooooooo",
"ooooooooooooooo        .......    oooooooooooooooooooooooooooooo",
"ooooooooooooooo        .......    oooooooooooooooooooooooooooooo",
"oooooooooooooooooooooooooooooooooooooooooooooooooooooooooooooooo",
"oooooooooooooooooooooooooooooooooooooooooooooooooooooooooooooooo",
"ooooooooooooooooooooOOOOoooooooooooooooooooooooooooooooooooooooo",
"ooooooooooooooooooooOOOOoooooooooooooooooooooooooooooooooooooooo",
"ooooooooooooooooooooOOOOoooooooooooooooooooooooooooooooooooooooo",
"ooooooooooooooooooooOOOOoooooooooooooooooooooooooooooooooooooooo",
"oooooooooooooooooooooooooooooooooooooooooooooooooooooooooooooooo",
"oooooooooooooooooooooooooooooooooooooooooooooooooooooooooooooooo",
"oooooooooooooooooooooooooooooooooooooooooooooooooooooooooooooooo",
"oooooooooooooooooooooooooooooooooooooooooooooooooooooooooooooooo"
};
