/* XPM */
static char * cote_droit_xpm[] = {
"64 64 7 1",
" 	c #9CDB43",
".	c #D6F264",
"+	c #423934",
"@	c #40AE9E",
"#	c #20D6C7",
"$	c #5A4E44",
"%	c #A6FCDB",
"                        ....++++@@@@############################",
"                        ....++++@@@@############################",
"                        ....++++@@@@############################",
"                        ....++++@@@@############################",
"                    ....++++++++@@@@############################",
"                    ....++++++++@@@@############################",
"                    ....++++++++@@@@############################",
"                    ....++++++++@@@@############################",
"                    ++++++++@@@@################################",
"                    ++++++++@@@@################################",
"                    ++++++++@@@@################################",
"                    ++++++++@@@@################################",
"                    ....++++@@@@################################",
"                    ....++++@@@@################################",
"                    ....++++@@@@################################",
"                    ....++++@@@@################################",
"                        ........@@@@############################",
"                        ........@@@@############################",
"                        ........@@@@############################",
"                        ........@@@@############################",
"            ........            @@@@############################",
"            ........            @@@@############################",
"            ........            @@@@############################",
"            ........            @@@@############################",
"                ++++        ++++@@@@############################",
"                ++++        ++++@@@@############################",
"                ++++        ++++@@@@############################",
"                ++++        ++++@@@@############################",
"                    ++++++++++++@@@@############################",
"                    ++++++++++++@@@@############################",
"                    ++++++++++++@@@@############################",
"                    ++++++++++++@@@@############################",
"                    ++++++++@@@@################################",
"                    ++++++++@@@@################################",
"                    ++++++++@@@@################################",
"                    ++++++++@@@@################################",
"                    ....    ++++@@@@############################",
"                    ....    ++++@@@@############################",
"                    ....    ++++@@@@############################",
"                    ....    ++++@@@@############################",
"                        ....++++@@@@############################",
"                        ....++++@@@@############################",
"                        ....++++@@@@############################",
"                        ....++++@@@@############################",
"                    ++++++++++++@@@@############################",
"                    ++++++++++++@@@@############################",
"                    ++++++++++++@@@@############################",
"                    ++++++++++++@@@@############################",
"                    ++++$$$$++++@@@@############################",
"                    ++++$$$$++++@@@@############################",
"                    ++++$$$$++++@@@@############################",
"                    ++++$$$$++++@@@@############################",
"                    ....$$$$++++%%%%############################",
"                    ....$$$$++++%%%%############################",
"                    ....$$$$++++%%%%############################",
"                    ....$$$$++++%%%%############################",
"                                @@@@############################",
"                                @@@@############################",
"                                @@@@############################",
"                                @@@@############################",
"                            ++++@@@@############################",
"                            ++++@@@@############################",
"                            ++++@@@@############################",
"                            ++++@@@@############################"};
