/* XPM */
static char * cote_gauche_xpm[] = {
"64 64 8 1",
" 	c #20D6C7",
".	c #40AE9E",
"+	c #423934",
"@	c #9CDB43",
"#	c #D6F264",
"$	c #249FDE",
"%	c #A6FCDB",
"&	c #5A4E44",
"                                   ....++++@@@@####@@@@@@@@@@@@@",
"                                   ....++++@@@@####@@@@@@@@@@@@@",
"                                   ....++++@@@@####@@@@@@@@@@@@@",
"                                   ....++++@@@@####@@@@@@@@@@@@@",
"                                   ....########@@@@@@@@@@@@@@@@@",
"                                   ....########@@@@@@@@@@@@@@@@@",
"                                   ....########@@@@@@@@@@@@@@@@@",
"                                   ....########@@@@@@@@@@@@@@@@@",
"                                   ....@@@@@@@@@@@@########@@@@@",
"                                   ....@@@@@@@@@@@@########@@@@@",
"                                   ....@@@@@@@@@@@@########@@@@@",
"                                   ....@@@@@@@@@@@@########@@@@@",
"                                   ....++++@@@@@@@@++++@@@@@@@@@",
"                                   ....++++@@@@@@@@++++@@@@@@@@@",
"                                   ....++++@@@@@@@@++++@@@@@@@@@",
"                                   ....++++@@@@@@@@++++@@@@@@@@@",
"                                   ....++++++++++++@@@@@@@@@@@@@",
"                                   ....++++++++++++@@@@@@@@@@@@@",
"                                   ....++++++++++++@@@@@@@@@@@@@",
"                                   ....++++++++++++@@@@@@@@@@@@@",
"                                   ....++++++++@@@@@@@@@@@@@@@@@",
"                                   ....++++++++@@@@@@@@@@@@@@@@@",
"                                   ....++++++++@@@@@@@@@@@@@@@@@",
"                                   ....++++++++@@@@@@@@@@@@@@@@@",
"                                   ....++++@@@@####@@@@@@@@@@@@@",
"                                   ....++++@@@@####@@@@@@@@@@@@@",
"                                   ....++++@@@@####@@@@@@@@@@@@@",
"                                   ....++++@@@@####@@@@@@@@@@@@@",
"                                   ....$$$$####@@@@@@@@@@@@@@@@@",
"                                   ....$$$$####@@@@@@@@@@@@@@@@@",
"                                   ....$$$$####@@@@@@@@@@@@@@@@@",
"                                   ....$$$$####@@@@@@@@@@@@@@@@@",
"                               ....$$$$++++++++++++@@@@@@@@@@@@@",
"                               ....$$$$++++++++++++@@@@@@@@@@@@@",
"                               ....$$$$++++++++++++@@@@@@@@@@@@@",
"                               ....$$$$++++++++++++@@@@@@@@@@@@@",
"                               ....$$$$++++++++++++@@@@@@@@@@@@@",
"                               ....$$$$++++++++++++@@@@@@@@@@@@@",
"                               ....$$$$++++++++++++@@@@@@@@@@@@@",
"                               ....$$$$++++++++++++@@@@@@@@@@@@@",
"                               ....%%%%++++&&&&####@@@@@@@@@@@@@",
"                               ....%%%%++++&&&&####@@@@@@@@@@@@@",
"                               ....%%%%++++&&&&####@@@@@@@@@@@@@",
"                               ....%%%%++++&&&&####@@@@@@@@@@@@@",
"                               ....$$$$@@@@@@@@@@@@@@@@@@@@@@@@@",
"                               ....$$$$@@@@@@@@@@@@@@@@@@@@@@@@@",
"                               ....$$$$@@@@@@@@@@@@@@@@@@@@@@@@@",
"                               ....$$$$@@@@@@@@@@@@@@@@@@@@@@@@@",
"                               ....$$$$++++@@@@@@@@@@@@@@@@@@@@@",
"                               ....$$$$++++@@@@@@@@@@@@@@@@@@@@@",
"                               ....$$$$++++@@@@@@@@@@@@@@@@@@@@@",
"                               ....$$$$++++@@@@@@@@@@@@@@@@@@@@@",
"                               ....$$$$++++++++++++@@@@@@@@@@@@@",
"                               ....$$$$++++++++++++@@@@@@@@@@@@@",
"                               ....$$$$++++++++++++@@@@@@@@@@@@@",
"                               ....$$$$++++++++++++@@@@@@@@@@@@@",
"                                   ....++++++++&&&&++++@@@@@@@@@",
"                                   ....++++++++&&&&++++@@@@@@@@@",
"                                   ....++++++++&&&&++++@@@@@@@@@",
"                                   ....++++++++&&&&++++@@@@@@@@@",
"                                   ....$$$$++++++++@@@@@@@@@@@@@",
"                                   ....$$$$++++++++@@@@@@@@@@@@@",
"                                   ....$$$$++++++++@@@@@@@@@@@@@",
"                                   ....$$$$++++++++@@@@@@@@@@@@@"};
