/* XPM */
static char *_c729c0af6084bf391a9da01479029a56dNGvpnHVGp8SqfD[] = {
/* columns rows colors chars-per-pixel */
"64 64 46 1 ",
"  c #221C1A",
". c #261F1C",
"X c #2D2724",
"o c #322121",
"O c #352322",
"+ c #362322",
"@ c #372422",
"# c #392522",
"$ c #3D2723",
"% c #322B28",
"& c #432B24",
"* c #442B24",
"= c #482E25",
"- c #4B2F26",
"; c #4E3126",
": c #513327",
"> c #523327",
", c #563628",
"< c #5A3829",
"1 c #6F462E",
"2 c #744930",
"3 c #71413B",
"4 c #875436",
"5 c #8C5837",
"6 c #965E3B",
"7 c #9A603C",
"8 c #9D623D",
"9 c #9E633D",
"0 c #9E643D",
"q c #A0643E",
"w c #A1663F",
"e c #A3663F",
"r c #A3673F",
"t c #AB6B42",
"y c #AF6E43",
"u c #B57145",
"i c #BB7547",
"p c #5E802B",
"a c #60822F",
"s c #82B639",
"d c #BF8F57",
"f c #DBA463",
"g c #9CDB43",
"h c #B2C953",
"j c #D6F264",
"k c #F4D29C",
/* pixels */
"gggggggggggggggggggggggggggggggggggggggggggggggggggggggggggggggg",
"gggggggggggggggggggggggg%%XX%%%%%%%%%%%%gggggggggggggggggggggggg",
"gggggggggggggggggggggggg%%XX%%%%%%%%%%%%gggggggggggggggggggggggg",
"gggggggggggggggggggggg%%ffffffffffffffff%%gggggggggggggggggggggg",
"gggggggggggggggggggggg%%ffffffffffffffff%%ggggggjjjjjjjjgggggggg",
"gggggggggggggggggggg%%ffffddddddddddddffff%%ggggjjjjjjjjgggggggg",
"gggggggggggggggggggg%%ffffddddddddddddffff%%ggggjjjjjjjjgggggggg",
"gggggggggggggggggggg..ffddffffffffffffddff%%ggggjjjjjjjjgggggggg",
"ggggjjjjjjjjgggggggg..ffddffffffffffffddff%%ggggggggjjjjjjjjgggg",
"ggggjjjjjjjjgggggggg..ffddffffffffffffddff%%ggggggggjjjjjjjjgggg",
"ggggjjjjjjjjgggggggg..ffddffffffffffffddff%%ggggggggjjjjjjjjgggg",
"ggggjjjjjjjjgggggggg%%ffffddddddddddddffff%%ggggggggjjjjjjjjgggg",
"gggggggggggggggggggg%%ffffddddddddddddffff%%gggggggggggggggggggg",
"gggggggggggggggggggg%%%%XXffffffffffff%%%%%%gggggggggggggggggggg",
"gggggggggggggggggggg%%%%XXffffffffffff%%%%%%gggggggggggggggggggg",
"gggggggggggggggggggg%%33XXXXXX%%XXXX%%%%33%%gggggggggggggggggggg",
"gggggggggggggggggggg%%33XXXXXX%%XXXX%%%%33%%gggggggggggggggggggg",
"gggggggggg%%%%%%%%%%%%%%%%%%%%%%%%%%%%%%%%%%%%%%%%%%%%gggggggggg",
"gggggggggg%%%%%%%%%%%%%%%%%%%%%%%%%%%%%%%%%%%%%%%%%%%%gggggggggg",
"gggggggg%%kkkkkkkkkkkkkkkkkkkkkkkkkkkkkkkkkkkkkkkkkkkk%%gggggggg",
"gggggggg%%kkkkkkkkkkkkkkkkkkkkkkkkkkkkkkkkkkkkkkkkkkkk%%gggggggg",
"gggggg%%kkffffffffffffffffffffffffffffffffffffffffffffkk%%gggggg",
"gggggg%%kkffffffffffffffffffffffffffffffffffffffffffffkk%%gggggg",
"gggggg%%ffffrrrrrrrrrrrrrrrrrrrrrrrrrrrrrrrrrrrrrrrrffff%%gggggg",
"gggggg%%ffffrrrrrrrrrrrrrrrrrrrrrrrrrrrrrrrrrrrrrrrrffff%%gggggg",
"gggggg..ffrriiiiiiiiiuo<iiiiiiiiiuo<iiiiiiiiuo<iiiiirrff%%gggggg",
"gggggg..ffrrii+ooXo2iuo<iiiiiiiiiuo<iiiiiiiiuo<iiiiirrff%%gggggg",
"gggggg%%iirrrr+o8rttrriiiiiiiirrrrrrrrrrrrre0o<iiiiirrff%%gggggg",
"gggggg%%iirrrr+o8rrrr8o<iuoooo;5r0o:rr1*oo1eqoooo:rirrff%%gggggg",
"gggggg%%ffiiii+ooo+6iuo<iuoorto,iuo<i8o4uiiiuoo56o-rrrii..gggggg",
"gggggg%%ffiiii+ouiiiiuo<iuo>ii#$iuo<i0ooo<8iuo-rr##errii..gggggg",
"gggggg..iirrrr+o8riiiuo<iuo<ii##r0o:rr2*oo*iuo<ii$#iiiff%%gggggg",
"gggggg..iiww0too8wiiiuX,iuo<ii$%r0o:rrrry-;iuo<ii#$iiiff%%gggggg",
"gggggg%%ffiiiiOouutwt0o;t8o:tt$%iuo<i8oo$<ri8o>rr#Otrrff%%gggggg",
"gggggg%%ffiiiiuuiit00twtt0t808iiiiiiiiiiiiiirrrrrrrrrrff%%gggggg",
"gggggg%%ffff0tt0iiiiiuiiiiiiiiiiiiiiiiiiiiiiiiiiiiiiffii..gggggg",
"gggggg%%fffft00tiiiiiiiiiiiiuuiiiiiiiiiiiiiiiiiiiiiiffii..jjgggg",
"gggggggg%%ffffffffffffffffffffffffffffffffffffffffffff%%jjjjgggg",
"gggggggg%%ffffffffffffffffffffffffffffffffffffffffffff%%jjjjgggg",
"gggggggggg................. ..........................ggjjjjgggg",
"gggggggggg............................................jjgggggggg",
"gggggggggggggggggggg..                      ggggggggjjjjgggggggg",
"gggggggggggggggggggg..                      ggggggggjjjjgggggggg",
"gggggggggggggggggggg  XXXX  XX  XXXX  XXXX  ggggggggjjjjgggggggg",
"gggggggggggggggggggg  XXXX  XX  XXXX  XXXX  gggggggggggggggggggg",
"gggggggggggggggggggg  XX33XXXXXXXXXXXX33XX  gggggggggggggggggggg",
"gggggggggggggggggggg  XX33XXXXXXXXXXXX33XX  gggggggggggggggggggg",
"gggggggggggggggggggg  XX33XX333333XX3333XX  gggggggggggggggggggg",
"gggggggggggggggggggg  XX33XX333333XX3333XX  gggggggggggggggggggg",
"gggggggggggggggggggg  XX3333XX3333XX33XXXX  gggggggggggggggggggg",
"gggggggggggggggggggg  XX3333XX3333XX33XXXX  gggggggggggggggggggg",
"ggggggggggggssgassss  %%3333XX3333XX33XXXX  ssssssssgggggggggggg",
"ggggggggggggssssssss..%%3333XX3333XX33XXXX  ssssssssgggggggggggg",
"ggggggggggssssssssss .%%%%33XX3333XX33XXXX  ssssssssssgggggggggg",
"ggggggggggssssssssss  %%%%33XX3322XX33XXXX  ssssssssssgggggggggg",
"ggggggggssssssssssssss%%aaaa%%..a2....pp%%ssssssssssssssgggggggg",
"ggggggggssssssssssssgh%%aaaa%%..aa ...aa%%ssssssssssssssgggggggg",
"ggggggggsssssssssssshhhhssssssssssssssssssssssssssssssssgggggggg",
"ggggggggsssssssssssshhhhssssssssssssssssssssssssssssssssgggggggg",
"ggggggggggsssssssssshhhhssssssssssssssssssssssssssssssgggggggggg",
"ggggggggggssssssssssssssssssssssssssssssssssssssssssssgggggggggg",
"ggggggggggggggggggggggssssssssssssssssssssgggggggggggggggggggggg",
"ggggggggggggggggggggggssssssssssssssssssssgggggggggggggggggggggg",
"gggggggggggggggggggggggggggggggggggggggggggggggggggggggggggggggg"
};
