/* XPM */
static char *_54947d1c2d047f48e5293098fbfeaf500RANo75luzp3JsJ[] = {
/* columns rows colors chars-per-pixel */
"64 64 8 1 ",
"  c #423934",
". c #5A4E44",
"X c #796755",
"o c #A08662",
"O c #9CDB43",
"+ c #D6F264",
"@ c #40AE9E",
"# c #20D6C7",
/* pixels */
"@@@@########@@@@@@@@@@@@@@@@############@@@@@@@@@@@@############",
"@@@@########@@@@@@@@@@@@@@@@############@@@@@@@@@@@@############",
"@@@@########@@@@@@@@@@@@@@@@############@@@@@@@@@@@@############",
"@@@@########@@@@@@@@@@@@@@@@############@@@@@@@@@@@@############",
"####                                    ########            ####",
"####                                    ########            ####",
"####                                    ########            ####",
"####                                    ########            ####",
"++++............        OOOO++++XXXX....++++++++....XXXX....++++",
"++++............        OOOO++++XXXX....++++++++....XXXX....++++",
"++++............        OOOO++++XXXX....++++++++....XXXX....++++",
"++++............        OOOO++++XXXX....++++++++....XXXX....++++",
"++++        OOOO++++++++OOOO++++oooooooo++++++++++++    ++++++++",
"++++        OOOO++++++++OOOO++++oooooooo++++++++++++    ++++++++",
"++++        OOOO++++++++OOOO++++oooooooo++++++++++++    ++++++++",
"++++        OOOO++++++++OOOO++++oooooooo++++++++++++    ++++++++",
"++++++++OOOOOOOO++++++++OOOOOOOOOOOOOOOO++++OOOO++++OOOOOOOOOOOO",
"++++++++OOOOOOOO++++++++OOOOOOOOOOOOOOOO++++OOOO++++OOOOOOOOOOOO",
"++++++++OOOOOOOO++++++++OOOOOOOOOOOOOOOO++++OOOO++++OOOOOOOOOOOO",
"++++++++OOOOOOOO++++++++OOOOOOOOOOOOOOOO++++OOOO++++OOOOOOOOOOOO",
"OOOO++++++++OOOOOOOOOOOOOOOOOOOOOOOOOOOO++++OOOO++++++++OOOOOOOO",
"OOOO++++++++OOOOOOOOOOOOOOOOOOOOOOOOOOOO++++OOOO++++++++OOOOOOOO",
"OOOO++++++++OOOOOOOOOOOOOOOOOOOOOOOOOOOO++++OOOO++++++++OOOOOOOO",
"OOOO++++++++OOOOOOOOOOOOOOOOOOOOOOOOOOOO++++OOOO++++++++OOOOOOOO",
"OOOOOOOO++++++++OOOOOOOOOOOOOOOOOOOOOOOOOOOOOOOOOOOOOOOOOOOOOOOO",
"OOOOOOOO++++++++OOOOOOOOOOOOOOOOOOOOOOOOOOOOOOOOOOOOOOOOOOOOOOOO",
"OOOOOOOO++++++++OOOOOOOOOOOOOOOOOOOOOOOOOOOOOOOOOOOOOOOOOOOOOOOO",
"OOOOOOOO++++++++OOOOOOOOOOOOOOOOOOOOOOOOOOOOOOOOOOOOOOOOOOOOOOOO",
"OOOOOOOOOOOOOOOOOOOOOOOOOOOOOOOOOOOOOOOOOOOOOOOOOOOOOOOOOOOOOOOO",
"OOOOOOOOOOOOOOOOOOOOOOOOOOOOOOOOOOOOOOOOOOOOOOOOOOOOOOOOOOOOOOOO",
"OOOOOOOOOOOOOOOOOOOOOOOOOOOOOOOOOOOOOOOOOOOOOOOOOOOOOOOOOOOOOOOO",
"OOOOOOOOOOOOOOOOOOOOOOOOOOOOOOOOOOOOOOOOOOOOOOOOOOOOOOOOOOOOOOOO",
"OOOOOOOOOOOOOOOOOOOOOOOOOOOOOOOOOOOOOOOOOOOOOOOOOOOOOOOOOOOOOOOO",
"OOOOOOOOOOOOOOOOOOOOOOOOOOOOOOOOOOOOOOOOOOOOOOOOOOOOOOOOOOOOOOOO",
"OOOOOOOOOOOOOOOOOOOOOOOOOOOOOOOOOOOOOOOOOOOOOOOOOOOOOOOOOOOOOOOO",
"OOOOOOOOOOOOOOOOOOOOOOOOOOOOOOOOOOOOOOOOOOOOOOOOOOOOOOOOOOOOOOOO",
"OOOOOOOOOOOOOOOOOOOOOOOOOOOOOOOOOOOOOOOOOOOOOOOOOOOOOOOOOOOOOOOO",
"OOOOOOOOOOOOOOOOOOOOOOOOOOOOOOOOOOOOOOOOOOOOOOOOOOOOOOOOOOOOOOOO",
"OOOOOOOOOOOOOOOOOOOOOOOOOOOOOOOOOOOOOOOOOOOOOOOOOOOOOOOOOOOOOOOO",
"OOOOOOOOOOOOOOOOOOOOOOOOOOOOOOOOOOOOOOOOOOOOOOOOOOOOOOOOOOOOOOOO",
"OOOOOOOOOOOOOOOOOOOOOOOOOOOOOOOOOOOOOOOOOOOOOOOOOOOOOOOOOOOOOOOO",
"OOOOOOOOOOOOOOOOOOOOOOOOOOOOOOOOOOOOOOOOOOOOOOOOOOOOOOOOOOOOOOOO",
"OOOOOOOOOOOOOOOOOOOOOOOOOOOOOOOOOOOOOOOOOOOOOOOOOOOOOOOOOOOOOOOO",
"OOOOOOOOOOOOOOOOOOOOOOOOOOOOOOOOOOOOOOOOOOOOOOOOOOOOOOOOOOOOOOOO",
"OOOOOOOOOOOOOOOOOOOOOOOOOOOOOOOOOOOOOOOO++++OOOOOOOOOOOOOOOOOOOO",
"OOOOOOOOOOOOOOOOOOOOOOOOOOOOOOOOOOOOOOOO++++OOOOOOOOOOOOOOOOOOOO",
"OOOOOOOOOOOOOOOOOOOOOOOOOOOOOOOOOOOOOOOO++++OOOOOOOOOOOOOOOOOOOO",
"OOOOOOOOOOOOOOOOOOOOOOOOOOOOOOOOOOOOOOOO++++OOOOOOOOOOOOOOOOOOOO",
"OOOOOOOO++++OOOOOOOOOOOOOOOOOOOOOOOOOOOOOOOOOOOOOOOOOOOOOOOOOOOO",
"OOOOOOOO++++OOOOOOOOOOOOOOOOOOOOOOOOOOOOOOOOOOOOOOOOOOOOOOOOOOOO",
"OOOOOOOO++++OOOOOOOOOOOOOOOOOOOOOOOOOOOOOOOOOOOOOOOOOOOOOOOOOOOO",
"OOOOOOOO++++OOOOOOOOOOOOOOOOOOOOOOOOOOOOOOOOOOOOOOOOOOOOOOOOOOOO",
"OOOOOOOOOOOO++++OOOOOOOOOOOOOOOOOOOOOOOOOOOOOOOOOOOOOOOOOOOOOOOO",
"OOOOOOOOOOOO++++OOOOOOOOOOOOOOOOOOOOOOOOOOOOOOOOOOOOOOOOOOOOOOOO",
"OOOOOOOOOOOO++++OOOOOOOOOOOOOOOOOOOOOOOOOOOOOOOOOOOOOOOOOOOOOOOO",
"OOOOOOOOOOOO++++OOOOOOOOOOOOOOOOOOOOOOOOOOOOOOOOOOOOOOOOOOOOOOOO",
"OOOOOOOOOOOOOOOOOOOOOOOOOOOOOOOOOOOOOOOOOOOOOOOOOOOOOOOOOOOOOOOO",
"OOOOOOOOOOOOOOOOOOOOOOOOOOOOOOOOOOOOOOOOOOOOOOOOOOOOOOOOOOOOOOOO",
"OOOOOOOOOOOOOOOOOOOOOOOOOOOOOOOOOOOOOOOOOOOOOOOOOOOOOOOOOOOOOOOO",
"OOOOOOOOOOOOOOOOOOOOOOOOOOOOOOOOOOOOOOOOOOOOOOOOOOOOOOOOOOOOOOOO",
"OOOOOOOOOOOOOOOOOOOOOOOOOOOOOOOOOOOOOOOOOOOOOOOOOOOOOOOOOOOOOOOO",
"OOOOOOOOOOOOOOOOOOOOOOOOOOOOOOOOOOOOOOOOOOOOOOOOOOOOOOOOOOOOOOOO",
"OOOOOOOOOOOOOOOOOOOOOOOOOOOOOOOOOOOOOOOOOOOOOOOOOOOOOOOOOOOOOOOO",
"OOOOOOOOOOOOOOOOOOOOOOOOOOOOOOOOOOOOOOOOOOOOOOOOOOOOOOOOOOOOOOOO"
};
