/* XPM */
static char *a06e2b2f04894958eaed451fc32981f6fJilMRMiQKw1AdtC[] = {
/* columns rows colors chars-per-pixel */
"64 64 12 1 ",
"  c #141013",
". c #423934",
"X c #5A4E44",
"o c #796655",
"O c #81B638",
"+ c #A08662",
"@ c #9CDB43",
"# c #B2C953",
"$ c #D6F264",
"% c #C7B08B",
"& c #E4D2AA",
"* c white",
/* pixels */
"@@@@@@@@@@@@@@@@@@@@@@@@@@@@@@@@@@@@@@@@@@@@@@@@@@@@@@@@@@@@@@@@",
"@@@@@@@@@@@@@@@@@@@@@@@@@@@@@@@@@@@@@@@@@@@@@@@@@@@@@@@@@@@@@@@@",
"@@@@@@@@@@@@@@@@@@@@@@@@@@@@@@@@@@@@@@@@@@@@@@@@@@@@@@@@@@@@@@@@",
"@@@@@@@@@@@@@@@@@@@@@@@@@@@@@@@@@@@@@@@@@@@@@@@@@@@@@@@@@@@@@@@@",
"@@@@@@@@@@@@@@@@@@@@@@@@@@@@@@@@@@@@@@@@@@@@@@@@$$$$$$$$@@@@@@@@",
"@@@@@@@@@@@@@@@@@@@@@@@@@@@@@@@@@@@@@@@@@@@@@@@@$$$$$$$$@@@@@@@@",
"@@@@@@@@@@@@@@@@@@@@@@@@@@@@@@@@@@@@@@@@@@@@@@@@$$$$$$$$@@@@@@@@",
"@@@@@@@@@@@@@@@@@@@@@@@@@@@@@@@@@@@@@@@@@@@@@@@@$$$$$$$$@@@@@@@@",
"@@@@$$$$$$$$@@@@@@@@@@@                    @@@@@@@@@$$$$$$$$@@@@",
"@@@@$$$$$$$$@@@@@@@@@  oo&&**&&&******+++++   @@@@@@$$$$$$$$@@@@",
"@@@@$$$$$$$$@@@@@@@@@  oo&&**&&&******+++++   @@@@@@$$$$$$$$@@@@",
"@@@@$$$$$$$$@@@@@@@@ ++&&&&&&***&&&&&&&&&&&&&&  @@@@$$$$$$$$@@@@",
"@@@@@@@@@@@@@@@@@@@@ ++&&&&&&***&&&&&&&&&&&&&&  @@@@@@@@@@@@@@@@",
"@@@@@@@@@@@@@@@@@@@@ ++&&&&&&***&&&&&&&&&&&&&&  @@@@@@@@@@@@@@@@",
"@@@@@@@@@@@@@@@@@@  &%%&&%%%%%%%%%%&&&&&&%%%&&&&  @@@@@@@@@@@@@@",
"@@@@@@@@@@@@@@@@  %%%%%%%&&&&&&&&&&&&&&&&%%%%%%%  @@@@@@@@@@@@@@",
"@@@@@@@@@@@@@@@@  %%%%%%%&&&&&&&&&&&&&&&&%%%%%%%  @@@@@@@@@@@@@@",
"@@@@@@@@@@@@@@@@  %%%%%%%&&&&&&&&&&&&&&&&%%%%%%%  @@@@@@@@@@@@@@",
"@@@@@@@@@@@@@@  oo+++%%%%%%%%%%%%%%%%%%%%%%%..oo  @@@@@@@@@@@@@@",
"@@@@@@@@@@@@@@  oo+++%%%%%%%%%%%%%%%%%%%%%%%..oo  @@@@@@@@@@@@@@",
"@@@@@@@@@@@   +++++++++oo%%%%%%%XXXXXXXoo&&o..&&  @@@@@@@@@@@@@@",
"@@@@@@@@@@@   oooooooXXXXXX..XXXXXX&&&&&&&&oXXXX..  @@@@@@@@@@@@",
"@@@@@@@@@@@   oooooooXXXXXX..XXXXXX&&&&&&&&oXXXX..  @@@@@@@@@@@@",
"@@@@@@@@@  +++ooooooooooo++XX......XXX&&&+++oo....  @@@@@@@@@@@@",
"@@@@@@@@@  +++ooooooooooo++XX......XXX&&&+++oo....  @@@@@@@@@@@@",
"@@@@@@@@@  &&&XXXXXXX&&&&&&ooXX.XXX+++++++++oo....XX @@@@@@@@@@@",
"@@@@@@@@@  &&&XXXXXXX&&&&&&ooXX.XXX+++++++++oo....XX @@@@@@@@@@@",
"@@@@@@@@ &&+++++++&&&&&&&++&&++.XXXooo%%%%%%..++..XX @@@@@@@@@@@",
"@@@@@@@@ &&+++++++&&&&&&&++&&++.XXXooo%%%%%%..++..XX @@@@@@@@@@@",
"@@@@@@@@ &&&&&****&&&****&&&&%%+XXX+++%%%%%%&&&&+++++   @@@@@@@@",
"@@@@@@@@ &&&&&****&&&****&&&&%%+XXX+++%%%%%%&&&&+++++   @@@@@@@@",
"@@@@@@@@ &&&&&&&&&***&&&&%%%%%%o++++++&&&&&&&&&&&&&&+   @@@@@@@@",
"@@@@@@@@ &&&&&&&&&***&&&&%%%%%%o++++++&&&&&&&&&&&&&&+   @@@@@@@@",
"@@@@@@@@ ++%%%%%%%%%%%%%%%%%%%%o+++&&&*****&%%**%%&&+   @@@@@@@@",
"@@@@@@@@ ++%%%%%%%%%%%%%%%%%%%%o+++&&&*****&%%**%%&&+   @@@@@@@@",
"@@@@@@   &&%%%%%%%%%%%%%%%%++oo&&&&&&&&&&***&&&&%%%%+   @@@@@@@@",
"@@@@@@   &&%%%%%%%%%%%%%%%%++oo&&&&&&&&&&***&&&&%%%%+   $$$$@@@@",
"@@@@@@  +++%%%+++++++%%++++XX..&%%%%%%%%%%%%%%%%%%%%++++  $$@@@@",
"@@@@@@  +++%%%+++++++%%++++XX..&%%%%%%%%%%%%%%%%%%%%++++  $$@@@@",
"@@@@@@  +ooooo%%%%%%%++&&++XX..+%%%%%%%++++XXXXX..oooXXX  $$@@@@",
"@@@@@@  +ooooo%%%%%%%++&&++XX..+%%%%%%%++++XXXXX..oooXXX  @@@@@@",
"@@@     o+++++++++XXX........ooooooXXX&&&&&&XXXXoooooXXX  @@@@@@",
"@@@     o+++++++++XXX........ooooooXXX&&&&&&XXXXoooooXXX  @@@@@@",
"@@@   ..oooooo++ooXX.XXXXXXXXoo++++XXXXXXXXooooooooooXXXXX  @@@@",
"@@@   ...+++++oooooo+++XXXX++oo+oooooo...XXX......XXXXXXXX  @@@@",
"@@@   ...+++++oooooo+++XXXX++oo+oooooo...XXX......XXXXXXXX  @@@@",
"@@@   ...XXoooooooooooo++++ooXX.ooooooooooo...XXXXXXXXXX    @@@@",
"@@@   ...XXXXX....ooo....XXXX...ooooooo....XXXXXXX......    @@@@",
"@@@   ...XXXXX....ooo....XXXX...ooooooo....XXXXXXX......    @@@@",
"@@@   ...XXXXX....ooo....XXXX...ooooooo....XXXXXXX......    @@@@",
"@@@OOO   ..XXXXXXXXXXXXXXXX..   ......oooXXXXXXX........  OO@@@@",
"@@@OOO   ..XXXXXXXXXXXXXXXX..   ......oooXXXXXXX........  OO@@@@",
"@@@@@@OO      ...........          ...   .........        OO@@@@",
"@@@@@@OO      ...........          ...   .........        OO@@@@",
"@@@@@@OOO                                           OOOOOO@@@@@@",
"@@@@@@OOO                                           OOOOOO@@@@@@",
"@@@@@@@@OOOOOOOOOOOO####OOOOOOOOOOOOOOOOOOOOOOOOOOOOOOOO@@@@@@@@",
"@@@@@@@@OOOOOOOOOOOO####OOOOOOOOOOOOOOOOOOOOOOOOOOOOOOOO@@@@@@@@",
"@@@@@@@@@OOOOOOOOOOO####OOOOOOOOOOOOOOOOOOOOOOOOOO@@@@@@@@@@@@@@",
"@@@@@@@@@OOOOOOOOOOO####OOOOOOOOOOOOOOOOOOOOOOOOOO@@@@@@@@@@@@@@",
"@@@@@@@@@@@@@@@@@@@@@@@@@@@@@@@@@@@@@@@@@@@@@@@@@@@@@@@@@@@@@@@@",
"@@@@@@@@@@@@@@@@@@@@@@@@@@@@@@@@@@@@@@@@@@@@@@@@@@@@@@@@@@@@@@@@",
"@@@@@@@@@@@@@@@@@@@@@@@@@@@@@@@@@@@@@@@@@@@@@@@@@@@@@@@@@@@@@@@@",
"@@@@@@@@@@@@@@@@@@@@@@@@@@@@@@@@@@@@@@@@@@@@@@@@@@@@@@@@@@@@@@@@"
};
